STARTFONT 2.1
FONT -FontForge-Share Tech Mono-Book-R-Normal--48-460-75-75-P-260-ISO10646-1
SIZE 46 75 75
FONTBOUNDINGBOX 49 52 -1 -11
COMMENT "Generated by fontforge, http://fontforge.sourceforge.net"
COMMENT "Copyright (c) 2012, Carrois Type Design, Ralph du Carrois (post@carrois.com www.carrois.com), with Reserved Font Name 'Share'"
STARTPROPERTIES 41
FOUNDRY "FontForge"
FAMILY_NAME "Share Tech Mono"
WEIGHT_NAME "Book"
SLANT "R"
SETWIDTH_NAME "Normal"
ADD_STYLE_NAME ""
PIXEL_SIZE 48
POINT_SIZE 460
RESOLUTION_X 75
RESOLUTION_Y 75
SPACING "P"
AVERAGE_WIDTH 260
CHARSET_REGISTRY "ISO10646"
CHARSET_ENCODING "1"
FONTNAME_REGISTRY ""
CHARSET_COLLECTIONS "ISO10646-1"
FONT_NAME "ShareTechMono-Regular"
FACE_NAME "Share Tech Mono"
COPYRIGHT "Copyright (c) 2012, Carrois Type Design, Ralph du Carrois (post@carrois.com www.carrois.com), with Reserved Font Name 'Share'"
FONT_VERSION "1.003"
FONT_ASCENT 38
FONT_DESCENT 10
UNDERLINE_POSITION -6
UNDERLINE_THICKNESS 3
X_HEIGHT 23
CAP_HEIGHT 33
DEFAULT_CHAR 192
RAW_ASCENT 800
RAW_DESCENT 200
NORM_SPACE 26
RELATIVE_WEIGHT 40
RELATIVE_SETWIDTH 50
SUPERSCRIPT_X 0
SUPERSCRIPT_Y 16
SUPERSCRIPT_SIZE 28
SUBSCRIPT_X 0
SUBSCRIPT_Y 3
SUBSCRIPT_SIZE 28
FIGURE_WIDTH 26
AVG_LOWERCASE_WIDTH 267
AVG_UPPERCASE_WIDTH 260
ENDPROPERTIES
CHARS 268
STARTCHAR .null
ENCODING 0
SWIDTH 0 0
DWIDTH 0 0
BBX 1 1 0 0
BITMAP
00
ENDCHAR
STARTCHAR nonmarkingreturn
ENCODING 13
SWIDTH 540 0
DWIDTH 26 0
BBX 1 1 0 0
BITMAP
00
ENDCHAR
STARTCHAR space
ENCODING 32
SWIDTH 540 0
DWIDTH 26 0
BBX 1 1 0 0
BITMAP
00
ENDCHAR
STARTCHAR exclam
ENCODING 33
SWIDTH 540 0
DWIDTH 26 0
BBX 4 34 11 0
BITMAP
F0
F0
F0
F0
F0
F0
F0
F0
F0
F0
F0
F0
F0
F0
F0
F0
F0
F0
F0
F0
F0
F0
F0
F0
00
00
00
00
00
F0
F0
F0
F0
F0
ENDCHAR
STARTCHAR quotedbl
ENCODING 34
SWIDTH 540 0
DWIDTH 26 0
BBX 12 12 7 22
BITMAP
F9F0
F9F0
F9F0
F9F0
F9F0
F0F0
F0F0
F0F0
F0E0
70E0
70E0
70E0
ENDCHAR
STARTCHAR numbersign
ENCODING 35
SWIDTH 540 0
DWIDTH 26 0
BBX 18 34 4 0
BITMAP
1E1E00
1E1E00
1E1E00
1E1E00
1E1E00
1E1E00
1E1E00
1E1E00
FFFFC0
FFFFC0
FFFFC0
FFFFC0
1E1E00
1E1E00
1E1E00
1E1E00
1E1E00
1E1E00
1E1E00
1E1E00
1E1E00
1E1E00
FFFFC0
FFFFC0
FFFFC0
FFFFC0
1E1E00
1E1E00
1E1E00
1E1E00
1E1E00
1E1E00
1E1E00
1E1E00
ENDCHAR
STARTCHAR dollar
ENCODING 36
SWIDTH 540 0
DWIDTH 26 0
BBX 16 43 5 -5
BITMAP
03C0
03C0
03C0
03C0
03C0
03C0
07FE
1FFE
3FFE
7FFE
7C00
F800
F000
F000
F000
F000
F000
F000
F800
7C00
7FF0
3FF8
1FFC
03FE
001E
001F
000F
000F
000F
000F
000F
000F
001F
003E
7FFE
7FFC
7FF8
7FE0
03C0
03C0
03C0
03C0
03C0
ENDCHAR
STARTCHAR percent
ENCODING 37
SWIDTH 540 0
DWIDTH 26 0
BBX 24 34 1 0
BITMAP
0FC000
3FE000
3FF000
787000
707800
707800
703800
703800
703800
707800
707800
787000
3FF000
1FE000
0F8001
0000FF
007FFF
7FFFFE
FFFE00
FF0000
8003F0
000FF8
000FFC
001E1E
001C1E
001C0E
001C0E
001C0E
001C0E
001C1E
001E1E
000FFC
000FF8
0003F0
ENDCHAR
STARTCHAR ampersand
ENCODING 38
SWIDTH 540 0
DWIDTH 26 0
BBX 20 34 4 0
BITMAP
07FC00
1FFC00
3FFC00
7FFC00
780000
780000
780000
F80000
F80000
F80000
780000
780000
7C0000
3FFFF0
1FFFF0
3FFFF0
7FFFF0
F80F00
F00F00
F00F00
F00F00
F00F00
F00F00
F00F00
F00F00
F00F00
F00F00
F00F00
F00F00
F80F00
7FFF00
7FFF00
3FFF00
0FFF00
ENDCHAR
STARTCHAR quotesingle
ENCODING 39
SWIDTH 540 0
DWIDTH 26 0
BBX 4 12 11 22
BITMAP
F0
F0
F0
F0
F0
F0
F0
F0
F0
F0
E0
60
ENDCHAR
STARTCHAR parenleft
ENCODING 40
SWIDTH 540 0
DWIDTH 26 0
BBX 10 45 8 -6
BITMAP
07C0
0F80
1F00
1E00
3C00
3C00
7800
7800
7800
7800
F000
F000
F000
F000
F000
F000
F000
F000
F000
F000
F000
F000
F000
F000
F000
F000
F000
F000
F000
F000
F000
F000
F000
F000
F000
7800
7800
7800
7800
3C00
3C00
1E00
1F00
0F80
07C0
ENDCHAR
STARTCHAR parenright
ENCODING 41
SWIDTH 540 0
DWIDTH 26 0
BBX 10 45 8 -6
BITMAP
F800
7C00
3C00
1E00
1F00
0F00
0F00
0780
0780
0780
0780
03C0
03C0
03C0
03C0
03C0
03C0
03C0
03C0
03C0
03C0
03C0
03C0
03C0
03C0
03C0
03C0
03C0
03C0
03C0
03C0
03C0
03C0
03C0
0780
0780
0780
0780
0F80
0F00
1F00
1E00
3C00
7C00
F800
ENDCHAR
STARTCHAR asterisk
ENCODING 42
SWIDTH 540 0
DWIDTH 26 0
BBX 20 18 3 17
BITMAP
00F000
00F000
00F000
00F000
00F000
70F0E0
7CF3E0
7FFFE0
FFFFF0
07FE00
01F800
03FC00
079E00
0F9F00
1F0F00
3E0FC0
1E0780
0C0200
ENDCHAR
STARTCHAR plus
ENCODING 43
SWIDTH 540 0
DWIDTH 26 0
BBX 18 19 4 5
BITMAP
01E000
01E000
01E000
01E000
01E000
01E000
01E000
01E000
FFFFC0
FFFFC0
FFFFC0
FFFFC0
01E000
01E000
01E000
01E000
01E000
01E000
01E000
ENDCHAR
STARTCHAR comma
ENCODING 44
SWIDTH 540 0
DWIDTH 26 0
BBX 6 12 10 -7
BITMAP
3C
3C
3C
3C
3C
7C
7C
78
78
F0
F0
F0
ENDCHAR
STARTCHAR hyphen
ENCODING 45
SWIDTH 540 0
DWIDTH 26 0
BBX 16 4 5 13
BITMAP
FFFF
FFFF
FFFF
FFFF
ENDCHAR
STARTCHAR period
ENCODING 46
SWIDTH 540 0
DWIDTH 26 0
BBX 4 5 11 0
BITMAP
F0
F0
F0
F0
F0
ENDCHAR
STARTCHAR slash
ENCODING 47
SWIDTH 540 0
DWIDTH 26 0
BBX 22 44 2 -5
BITMAP
00007C
000078
0000F8
0000F0
0000F0
0001E0
0001E0
0001E0
0003C0
0003C0
000780
000780
000780
000F00
000F00
001F00
001E00
001E00
003C00
003C00
003C00
007800
007800
00F000
00F000
00F000
01E000
01E000
03C000
03C000
03C000
078000
078000
0F8000
0F0000
0F0000
1E0000
1E0000
1E0000
3C0000
3C0000
780000
780000
F80000
ENDCHAR
STARTCHAR zero
ENCODING 48
SWIDTH 540 0
DWIDTH 26 0
BBX 18 34 4 0
BITMAP
07F800
1FFE00
3FFF00
7FFF00
7C0F80
780780
780780
F80780
F807C0
F80FC0
F81FC0
F81FC0
F83FC0
F87FC0
F87FC0
F8F7C0
F9F7C0
F9E7C0
FBC7C0
FFC7C0
FF87C0
FF07C0
FE07C0
FE07C0
FC07C0
F807C0
F80780
780780
780780
7C0F80
7FFF00
3FFF00
1FFE00
07F800
ENDCHAR
STARTCHAR one
ENCODING 49
SWIDTH 540 0
DWIDTH 26 0
BBX 16 34 5 0
BITMAP
07E0
1FE0
7FE0
FFE0
FDE0
E1E0
81E0
01E0
01E0
01E0
01E0
01E0
01E0
01E0
01E0
01E0
01E0
01E0
01E0
01E0
01E0
01E0
01E0
01E0
01E0
01E0
01E0
01E0
01E0
01E0
FFFF
FFFF
FFFF
FFFF
ENDCHAR
STARTCHAR two
ENCODING 50
SWIDTH 540 0
DWIDTH 26 0
BBX 16 34 5 0
BITMAP
7FC0
7FF0
7FF8
7FFC
007C
003E
001E
001E
001E
001E
001E
001E
001E
001E
003E
003C
007C
00F8
00F8
01F0
03E0
03E0
07C0
0F80
0F80
1F00
3E00
3C00
7C00
F800
FFFF
FFFF
FFFF
FFFF
ENDCHAR
STARTCHAR three
ENCODING 51
SWIDTH 540 0
DWIDTH 26 0
BBX 14 34 6 0
BITMAP
FF80
FFE0
FFF0
FFF8
0078
0078
007C
007C
007C
007C
007C
007C
0078
0078
00F8
7FF0
7FE0
7FF0
7FF8
007C
003C
003C
003C
003C
003C
003C
003C
003C
003C
007C
FFF8
FFF8
FFF0
FFC0
ENDCHAR
STARTCHAR four
ENCODING 52
SWIDTH 540 0
DWIDTH 26 0
BBX 18 34 4 0
BITMAP
078000
078000
078000
0F0000
0F0000
0F0000
0F0000
0F0000
1E0000
1E0000
1E0000
1E0000
3E3C00
3C3C00
3C3C00
3C3C00
3C3C00
783C00
783C00
783C00
783C00
F83C00
F03C00
FFFFC0
FFFFC0
FFFFC0
FFFFC0
003C00
003C00
003C00
003C00
003C00
003C00
003C00
ENDCHAR
STARTCHAR five
ENCODING 53
SWIDTH 540 0
DWIDTH 26 0
BBX 14 34 6 0
BITMAP
FFF8
FFF8
FFF8
FFF8
F000
F000
F000
F000
F000
F000
F000
F000
F000
F000
FFC0
FFF0
FFF8
FFF8
007C
003C
003C
003C
003C
003C
003C
003C
003C
003C
003C
007C
FFF8
FFF8
FFF0
FFC0
ENDCHAR
STARTCHAR six
ENCODING 54
SWIDTH 540 0
DWIDTH 26 0
BBX 17 34 5 0
BITMAP
07FC00
1FFC00
7FFC00
7FFC00
F80000
F00000
F00000
F00000
F00000
F00000
F00000
F00000
F00000
FFF000
FFFC00
FFFE00
FFFF00
F00F00
F00F00
F00F00
F00F00
F00F80
F00F80
F00F80
F00F80
F00F80
F00F00
F00F00
F00F00
F81F00
7FFE00
7FFE00
1FFC00
0FF000
ENDCHAR
STARTCHAR seven
ENCODING 55
SWIDTH 540 0
DWIDTH 26 0
BBX 16 34 5 0
BITMAP
FFFF
FFFF
FFFF
FFFF
001F
001E
001E
003E
003E
003C
003C
007C
0078
0078
00F8
00F8
00F0
00F0
01F0
01E0
01E0
03E0
03E0
03C0
03C0
07C0
0780
0780
0F80
0F00
0F00
0F00
1F00
1E00
ENDCHAR
STARTCHAR eight
ENCODING 56
SWIDTH 540 0
DWIDTH 26 0
BBX 18 34 4 0
BITMAP
07F800
1FFE00
3FFF00
3FFF00
7C0F80
780780
780780
780780
780780
780780
780780
780780
780780
780F80
7C1F00
3FFF00
1FFE00
3FFF00
7FFF80
780780
F807C0
F003C0
F003C0
F003C0
F003C0
F003C0
F003C0
F003C0
F807C0
F80780
7FFF80
7FFF00
3FFF00
0FF800
ENDCHAR
STARTCHAR nine
ENCODING 57
SWIDTH 540 0
DWIDTH 26 0
BBX 16 34 5 0
BITMAP
0FF0
1FFC
7FFE
7FFE
F81F
F00F
F00F
F00F
F00F
F00F
F00F
F00F
F00F
F00F
F00F
F00F
F00F
F80F
7FFF
7FFF
1FFF
01FF
000F
000F
000F
000F
000F
000F
000F
001F
3FFE
3FFE
3FFC
3FF0
ENDCHAR
STARTCHAR colon
ENCODING 58
SWIDTH 540 0
DWIDTH 26 0
BBX 4 24 11 0
BITMAP
F0
F0
F0
F0
F0
00
00
00
00
00
00
00
00
00
00
00
00
00
00
F0
F0
F0
F0
F0
ENDCHAR
STARTCHAR semicolon
ENCODING 59
SWIDTH 540 0
DWIDTH 26 0
BBX 6 31 10 -7
BITMAP
3C
3C
3C
3C
3C
00
00
00
00
00
00
00
00
00
00
00
00
00
00
3C
3C
3C
3C
3C
7C
7C
78
78
F0
F0
F0
ENDCHAR
STARTCHAR less
ENCODING 60
SWIDTH 540 0
DWIDTH 26 0
BBX 18 22 4 5
BITMAP
000040
0001C0
0007C0
003FC0
00FFC0
03FE00
0FF800
3FE000
FF8000
FC0000
F00000
F80000
FE0000
FF8000
3FE000
0FFC00
03FF00
00FFC0
001FC0
0007C0
0001C0
000040
ENDCHAR
STARTCHAR equal
ENCODING 61
SWIDTH 540 0
DWIDTH 26 0
BBX 18 13 4 8
BITMAP
FFFFC0
FFFFC0
FFFFC0
FFFFC0
000000
000000
000000
000000
000000
FFFFC0
FFFFC0
FFFFC0
FFFFC0
ENDCHAR
STARTCHAR greater
ENCODING 62
SWIDTH 540 0
DWIDTH 26 0
BBX 18 22 4 5
BITMAP
800000
E00000
F80000
FE0000
FFC000
3FF000
07FC00
01FF00
007FC0
000FC0
0003C0
0003C0
001FC0
007FC0
01FF00
0FFC00
3FF000
FFC000
FE0000
F80000
E00000
800000
ENDCHAR
STARTCHAR question
ENCODING 63
SWIDTH 540 0
DWIDTH 26 0
BBX 14 34 6 0
BITMAP
FF80
FFE0
FFF0
FFF8
0078
0078
003C
003C
003C
003C
007C
0078
0078
00F8
01F0
03E0
07C0
0F80
0F00
0F00
0F00
0F00
0F00
0F00
0000
0000
0000
0000
0000
1F00
1F00
1F00
1F00
1F00
ENDCHAR
STARTCHAR at
ENCODING 64
SWIDTH 540 0
DWIDTH 26 0
BBX 24 34 1 0
BITMAP
0FFFF0
3FFFFC
3FFFFC
7FFFFE
78001E
F0000E
F0000F
F0000F
F03F8F
F0FF8F
F1FF8F
F1C38F
F1C38F
F3C38F
F3C38F
F3C38F
F3C38F
F3C38F
F3C38F
F3C38F
F3C38F
F3C38F
F3C38F
F1C78F
F1FF8E
F1FFCE
F0FDFE
F000FC
F00078
700000
7FFF00
7FFF00
3FFF00
0FFF00
ENDCHAR
STARTCHAR A
ENCODING 65
SWIDTH 540 0
DWIDTH 26 0
BBX 22 34 2 0
BITMAP
00FC00
00FC00
00FC00
01FE00
01FE00
01FE00
01CE00
03CF00
03CF00
03CF00
038F00
038780
078780
078780
078780
070380
0F03C0
0F03C0
0F03C0
0F03C0
1E01E0
1E01E0
1FFFE0
1FFFE0
3FFFF0
3FFFF0
3C00F0
3C00F0
7C00F0
780078
780078
780078
780078
F8007C
ENDCHAR
STARTCHAR B
ENCODING 66
SWIDTH 540 0
DWIDTH 26 0
BBX 18 34 4 0
BITMAP
FFF800
FFFE00
FFFF00
FFFF80
F00F80
F00780
F00780
F00780
F00780
F00780
F00780
F00780
F00780
F00F80
FFFF00
FFFE00
FFFE00
FFFF80
F00F80
F007C0
F003C0
F003C0
F003C0
F003C0
F003C0
F003C0
F003C0
F003C0
F007C0
F00780
FFFF80
FFFF80
FFFF00
FFFC00
ENDCHAR
STARTCHAR C
ENCODING 67
SWIDTH 540 0
DWIDTH 26 0
BBX 16 34 5 0
BITMAP
07FF
1FFF
3FFF
7FFF
7C00
7800
F000
F000
F000
F000
F000
F000
F000
F000
F000
F000
F000
F000
F000
F000
F000
F000
F000
F000
F000
F000
F000
F000
7800
7C00
7FFF
3FFF
1FFF
07FF
ENDCHAR
STARTCHAR D
ENCODING 68
SWIDTH 540 0
DWIDTH 26 0
BBX 18 34 4 0
BITMAP
FFF800
FFFE00
FFFF80
FFFF80
F007C0
F007C0
F003C0
F003C0
F003C0
F003C0
F003C0
F003C0
F003C0
F003C0
F003C0
F003C0
F003C0
F003C0
F003C0
F003C0
F003C0
F003C0
F003C0
F003C0
F003C0
F003C0
F003C0
F003C0
F003C0
F007C0
FFFF80
FFFF80
FFFF00
FFFC00
ENDCHAR
STARTCHAR E
ENCODING 69
SWIDTH 540 0
DWIDTH 26 0
BBX 16 34 5 0
BITMAP
FFFF
FFFF
FFFF
FFFF
F000
F000
F000
F000
F000
F000
F000
F000
F000
F000
F000
FFFE
FFFE
FFFE
FFFE
F000
F000
F000
F000
F000
F000
F000
F000
F000
F000
F000
FFFF
FFFF
FFFF
FFFF
ENDCHAR
STARTCHAR F
ENCODING 70
SWIDTH 540 0
DWIDTH 26 0
BBX 16 34 5 0
BITMAP
FFFF
FFFF
FFFF
FFFF
F000
F000
F000
F000
F000
F000
F000
F000
F000
F000
F000
FFFE
FFFE
FFFE
FFFE
F000
F000
F000
F000
F000
F000
F000
F000
F000
F000
F000
F000
F000
F000
F000
ENDCHAR
STARTCHAR G
ENCODING 71
SWIDTH 540 0
DWIDTH 26 0
BBX 16 34 5 0
BITMAP
07FE
3FFE
7FFE
7FFE
F800
F000
F000
F000
F000
F000
F000
F000
F000
F000
F000
F000
F0FF
F0FF
F0FF
F0FF
F00F
F00F
F00F
F00F
F00F
F00F
F00F
F00F
F00F
F80F
7FFF
7FFF
3FFF
0FFF
ENDCHAR
STARTCHAR H
ENCODING 72
SWIDTH 540 0
DWIDTH 26 0
BBX 18 34 4 0
BITMAP
F003C0
F003C0
F003C0
F003C0
F003C0
F003C0
F003C0
F003C0
F003C0
F003C0
F003C0
F003C0
F003C0
F003C0
F003C0
FFFFC0
FFFFC0
FFFFC0
FFFFC0
F003C0
F003C0
F003C0
F003C0
F003C0
F003C0
F003C0
F003C0
F003C0
F003C0
F003C0
F003C0
F003C0
F003C0
F003C0
ENDCHAR
STARTCHAR I
ENCODING 73
SWIDTH 540 0
DWIDTH 26 0
BBX 12 34 7 0
BITMAP
FFF0
FFF0
FFF0
FFF0
0F00
0F00
0F00
0F00
0F00
0F00
0F00
0F00
0F00
0F00
0F00
0F00
0F00
0F00
0F00
0F00
0F00
0F00
0F00
0F00
0F00
0F00
0F00
0F00
0F00
0F00
FFF0
FFF0
FFF0
FFF0
ENDCHAR
STARTCHAR J
ENCODING 74
SWIDTH 540 0
DWIDTH 26 0
BBX 14 34 6 0
BITMAP
3FFC
3FFC
3FFC
3FFC
007C
007C
007C
007C
007C
007C
007C
007C
007C
007C
007C
007C
007C
007C
007C
007C
007C
007C
007C
007C
007C
007C
007C
007C
0078
00F8
FFF8
FFF0
FFE0
FF80
ENDCHAR
STARTCHAR K
ENCODING 75
SWIDTH 540 0
DWIDTH 26 0
BBX 18 34 4 0
BITMAP
F007C0
F00F80
F00F00
F01F00
F03E00
F03C00
F07C00
F07800
F0F800
F1F000
F1E000
F3E000
F3C000
F7C000
FF8000
FF8000
FF8000
FFC000
FFC000
FBE000
F9E000
F1F000
F0F000
F0F800
F07800
F07C00
F03C00
F03E00
F01E00
F01F00
F00F00
F00F80
F007C0
F007C0
ENDCHAR
STARTCHAR L
ENCODING 76
SWIDTH 540 0
DWIDTH 26 0
BBX 14 34 6 0
BITMAP
F000
F000
F000
F000
F000
F000
F000
F000
F000
F000
F000
F000
F000
F000
F000
F000
F000
F000
F000
F000
F000
F000
F000
F000
F000
F000
F000
F000
F000
F000
FFFC
FFFC
FFFC
FFFC
ENDCHAR
STARTCHAR M
ENCODING 77
SWIDTH 540 0
DWIDTH 26 0
BBX 20 34 3 0
BITMAP
FC03F0
FE03F0
FE07F0
FE07F0
FE0770
EE0770
EF0F70
EF0F70
EF0E70
E70E70
E78E70
E79E70
E79C70
E39C70
E39C70
E3FC70
E3F870
E1F870
E1F870
E1F870
E1F070
E0F070
E0F070
E00070
E00070
E00070
E00070
E00070
E00070
E00070
E00070
E00070
E00070
E00070
ENDCHAR
STARTCHAR N
ENCODING 78
SWIDTH 540 0
DWIDTH 26 0
BBX 18 34 4 0
BITMAP
FE03C0
FE03C0
FE03C0
FE03C0
FF03C0
FF03C0
FF03C0
F703C0
F783C0
F783C0
F783C0
F383C0
F3C3C0
F3C3C0
F3C3C0
F1C3C0
F1E3C0
F1E3C0
F1E3C0
F0E3C0
F0F3C0
F0F3C0
F0F3C0
F073C0
F07BC0
F07BC0
F07BC0
F03BC0
F03FC0
F03FC0
F03FC0
F01FC0
F01FC0
F01FC0
ENDCHAR
STARTCHAR O
ENCODING 79
SWIDTH 540 0
DWIDTH 26 0
BBX 20 34 3 0
BITMAP
07FE00
1FFF80
3FFFC0
7FFFC0
7C03E0
7801E0
F801E0
F801F0
F801F0
F801F0
F801F0
F801F0
F801F0
F801F0
F801F0
F801F0
F801F0
F801F0
F801F0
F801F0
F801F0
F801F0
F801F0
F801F0
F801F0
F801F0
F801F0
F801E0
7801E0
7C03E0
7FFFC0
3FFFC0
1FFF80
07FE00
ENDCHAR
STARTCHAR P
ENCODING 80
SWIDTH 540 0
DWIDTH 26 0
BBX 18 34 4 0
BITMAP
FFF800
FFFE00
FFFF00
FFFF80
F80780
F80780
F807C0
F807C0
F807C0
F807C0
F807C0
F807C0
F807C0
F807C0
F807C0
F80780
F80780
FFFF80
FFFF00
FFFE00
FFF800
F80000
F80000
F80000
F80000
F80000
F80000
F80000
F80000
F80000
F80000
F80000
F80000
F80000
ENDCHAR
STARTCHAR Q
ENCODING 81
SWIDTH 540 0
DWIDTH 26 0
BBX 22 37 3 -3
BITMAP
07FE00
1FFF80
3FFFC0
7FFFC0
7C03E0
7801E0
F801E0
F801F0
F801F0
F801F0
F801F0
F801F0
F801F0
F801F0
F801F0
F801F0
F801F0
F801F0
F801F0
F801F0
F801F0
F801F0
F801F0
F801F0
F801F0
F801F0
F801F0
F801E0
7801E0
7C03E0
7FFFE0
3FFFE0
1FFFF0
07FEF8
00007C
000038
000010
ENDCHAR
STARTCHAR R
ENCODING 82
SWIDTH 540 0
DWIDTH 26 0
BBX 20 34 3 0
BITMAP
FFF800
FFFE00
FFFF00
FFFF80
F80780
F80780
F807C0
F807C0
F807C0
F807C0
F807C0
F807C0
F807C0
F807C0
F80780
F80780
FFFF80
FFFF00
FFFE00
FFF800
F87C00
F83C00
F83E00
F81E00
F81F00
F80F00
F80F80
F80780
F807C0
F807C0
F803C0
F803E0
F801E0
F801F0
ENDCHAR
STARTCHAR S
ENCODING 83
SWIDTH 540 0
DWIDTH 26 0
BBX 16 34 5 0
BITMAP
07FE
1FFE
3FFE
7FFE
F800
F800
F000
F000
F000
F000
F000
F000
F000
F800
7C00
7FF0
3FFC
1FFE
03FE
001F
000F
000F
000F
000F
000F
000F
000F
000F
001F
001F
7FFE
7FFC
7FF8
7FE0
ENDCHAR
STARTCHAR T
ENCODING 84
SWIDTH 540 0
DWIDTH 26 0
BBX 20 34 3 0
BITMAP
FFFFF0
FFFFF0
FFFFF0
FFFFF0
00F000
00F000
00F000
00F000
00F000
00F000
00F000
00F000
00F000
00F000
00F000
00F000
00F000
00F000
00F000
00F000
00F000
00F000
00F000
00F000
00F000
00F000
00F000
00F000
00F000
00F000
00F000
00F000
00F000
00F000
ENDCHAR
STARTCHAR U
ENCODING 85
SWIDTH 540 0
DWIDTH 26 0
BBX 18 34 4 0
BITMAP
F003C0
F003C0
F003C0
F003C0
F003C0
F003C0
F003C0
F003C0
F003C0
F003C0
F003C0
F003C0
F003C0
F003C0
F003C0
F003C0
F003C0
F003C0
F003C0
F003C0
F003C0
F003C0
F003C0
F003C0
F003C0
F003C0
F003C0
F003C0
F003C0
F807C0
7FFF80
7FFF00
1FFE00
07F800
ENDCHAR
STARTCHAR V
ENCODING 86
SWIDTH 540 0
DWIDTH 26 0
BBX 20 34 3 0
BITMAP
F000F0
F000F0
F001E0
F801E0
7801E0
7801E0
7803E0
7803C0
7C03C0
3C03C0
3C03C0
3C0780
3C0780
3E0780
1E0780
1E0780
1E0F00
1E0F00
0E0F00
0F0F00
0F0E00
0F1E00
0F1E00
071E00
079E00
079C00
07BC00
07BC00
03BC00
03F800
03F800
03F800
03F800
01F800
ENDCHAR
STARTCHAR W
ENCODING 87
SWIDTH 540 0
DWIDTH 26 0
BBX 21 34 2 0
BITMAP
F00038
700038
700038
700038
700038
700038
700038
700038
700038
700078
780078
780078
780078
780078
787078
787878
787870
787870
78F870
78FC70
78FC70
78FC70
39DC70
39DE70
39CE70
39CE70
3BCE70
3B8F70
3B8F70
3B8770
3F87F0
3F07F0
3F07F0
3F07F0
ENDCHAR
STARTCHAR X
ENCODING 88
SWIDTH 540 0
DWIDTH 26 0
BBX 21 34 2 0
BITMAP
7C00F8
3C00F0
3E01F0
1E01E0
1F03E0
0F03C0
0F87C0
078780
07C780
03CF80
03CF00
03FF00
01FE00
01FE00
00FC00
00FC00
007800
00FC00
00FC00
01FE00
01FE00
03FF00
03CF00
07CF80
07CF80
078780
0F87C0
0F03C0
1F03E0
1E01E0
3E01F0
3C00F0
7C00F8
F80078
ENDCHAR
STARTCHAR Y
ENCODING 89
SWIDTH 540 0
DWIDTH 26 0
BBX 22 34 2 0
BITMAP
F8007C
780078
7C00F8
3C00F0
3E01F0
1E01E0
1F01E0
0F03C0
0F03C0
078780
078780
07CF00
03CF00
03FE00
01FE00
01FC00
00FC00
00F800
007800
007800
007800
007800
007800
007800
007800
007800
007800
007800
007800
007800
007800
007800
007800
007800
ENDCHAR
STARTCHAR Z
ENCODING 90
SWIDTH 540 0
DWIDTH 26 0
BBX 18 34 4 0
BITMAP
7FFFC0
7FFFC0
7FFFC0
7FFFC0
0007C0
000F80
000F80
001F00
001F00
003E00
003E00
007C00
007C00
00F800
00F800
01F000
01F000
03E000
03E000
07C000
07C000
0F8000
0F8000
1F0000
1F0000
3E0000
3E0000
7C0000
7C0000
F80000
FFFF80
FFFF80
FFFF80
FFFF80
ENDCHAR
STARTCHAR bracketleft
ENCODING 91
SWIDTH 540 0
DWIDTH 26 0
BBX 10 45 8 -6
BITMAP
FFC0
FFC0
FFC0
FFC0
F000
F000
F000
F000
F000
F000
F000
F000
F000
F000
F000
F000
F000
F000
F000
F000
F000
F000
F000
F000
F000
F000
F000
F000
F000
F000
F000
F000
F000
F000
F000
F000
F000
F000
F000
F000
F000
FFC0
FFC0
FFC0
FFC0
ENDCHAR
STARTCHAR backslash
ENCODING 92
SWIDTH 540 0
DWIDTH 26 0
BBX 22 44 2 -5
BITMAP
F80000
780000
780000
3C0000
3C0000
1E0000
1E0000
1E0000
0F0000
0F0000
0F8000
078000
078000
03C000
03C000
03C000
01E000
01E000
00F000
00F000
00F000
007800
007800
003C00
003C00
003C00
001E00
001E00
001E00
000F00
000F00
000780
000780
000780
0003C0
0003C0
0001E0
0001E0
0001E0
0000F0
0000F0
000078
000078
00007C
ENDCHAR
STARTCHAR bracketright
ENCODING 93
SWIDTH 540 0
DWIDTH 26 0
BBX 10 45 8 -6
BITMAP
FFC0
FFC0
FFC0
FFC0
03C0
03C0
03C0
03C0
03C0
03C0
03C0
03C0
03C0
03C0
03C0
03C0
03C0
03C0
03C0
03C0
03C0
03C0
03C0
03C0
03C0
03C0
03C0
03C0
03C0
03C0
03C0
03C0
03C0
03C0
03C0
03C0
03C0
03C0
03C0
03C0
03C0
FFC0
FFC0
FFC0
FFC0
ENDCHAR
STARTCHAR asciicircum
ENCODING 94
SWIDTH 540 0
DWIDTH 26 0
BBX 19 17 3 20
BITMAP
01F800
01F800
03FC00
03FC00
03FC00
079E00
079E00
0F8F00
0F0F00
0F0F00
1E0780
1E0780
3C07C0
3C03C0
7C03C0
7801E0
F801E0
ENDCHAR
STARTCHAR underscore
ENCODING 95
SWIDTH 540 0
DWIDTH 26 0
BBX 24 4 1 -8
BITMAP
FFFFFF
FFFFFF
FFFFFF
FFFFFF
ENDCHAR
STARTCHAR grave
ENCODING 96
SWIDTH 540 0
DWIDTH 26 0
BBX 10 7 8 28
BITMAP
F800
7C00
3C00
1E00
1F00
0F80
07C0
ENDCHAR
STARTCHAR a
ENCODING 97
SWIDTH 540 0
DWIDTH 26 0
BBX 20 24 3 0
BITMAP
3FF800
3FFE00
3FFF00
3FFF00
000F80
000780
000780
000780
000780
0FFF80
3FFF80
7FFF80
7FFF80
780780
F00780
F00780
F00780
F00780
F00780
F80780
7FFFF0
7FFFF0
3FFFF0
0FF8F0
ENDCHAR
STARTCHAR b
ENCODING 98
SWIDTH 540 0
DWIDTH 26 0
BBX 18 34 4 0
BITMAP
F00000
F00000
F00000
F00000
F00000
F00000
F00000
F00000
F00000
F00000
F7F800
FFFE00
FFFF00
FFFF80
F80780
F007C0
F003C0
F003C0
F003C0
F003C0
F003C0
F003C0
F003C0
F003C0
F003C0
F003C0
F003C0
F003C0
F007C0
F00780
FFFF80
FFFF00
FFFE00
FFF800
ENDCHAR
STARTCHAR c
ENCODING 99
SWIDTH 540 0
DWIDTH 26 0
BBX 14 24 6 0
BITMAP
0FFC
3FFC
7FFC
7FFC
F800
F000
F000
F000
F000
F000
F000
F000
F000
F000
F000
F000
F000
F000
F000
F800
FFFC
7FFC
3FFC
0FFC
ENDCHAR
STARTCHAR d
ENCODING 100
SWIDTH 540 0
DWIDTH 26 0
BBX 18 34 4 0
BITMAP
0003C0
0003C0
0003C0
0003C0
0003C0
0003C0
0003C0
0003C0
0003C0
0003C0
0FFFC0
3FFFC0
7FFFC0
7FFFC0
F803C0
F003C0
F003C0
F003C0
F003C0
F003C0
F003C0
F003C0
F003C0
F003C0
F003C0
F003C0
F003C0
F003C0
F003C0
F807C0
7FFFC0
7FFFC0
3FFFC0
0FFBC0
ENDCHAR
STARTCHAR e
ENCODING 101
SWIDTH 540 0
DWIDTH 26 0
BBX 16 24 5 0
BITMAP
1FF8
3FFC
7FFE
FFFF
F00F
F00F
F00F
F00F
F00F
F00F
FFFF
FFFF
FFFF
FFFF
F000
F000
F000
F000
F000
F000
FFFE
7FFE
3FFE
0FFE
ENDCHAR
STARTCHAR f
ENCODING 102
SWIDTH 540 0
DWIDTH 26 0
BBX 16 34 5 0
BITMAP
01FF
07FF
0FFF
0FFF
0F00
0F00
0F00
0F00
0F00
0F00
FFFF
FFFF
FFFF
FFFF
0F00
0F00
0F00
0F00
0F00
0F00
0F00
0F00
0F00
0F00
0F00
0F00
0F00
0F00
0F00
0F00
FFFC
FFFC
FFFC
FFFC
ENDCHAR
STARTCHAR g
ENCODING 103
SWIDTH 540 0
DWIDTH 26 0
BBX 19 32 3 -8
BITMAP
07FFE0
1FFFE0
3FFFE0
7FFFE0
7801E0
7801E0
F801E0
F801E0
F801E0
F801E0
7801E0
7803C0
7C07C0
7FFFC0
3FFF80
1FFF00
0FF800
0F0000
0FF000
0FFF80
0FFFC0
0FFFE0
0003E0
0001E0
0001E0
0001E0
0001E0
0001E0
7FFFE0
7FFFC0
7FFF80
7FFE00
ENDCHAR
STARTCHAR h
ENCODING 104
SWIDTH 540 0
DWIDTH 26 0
BBX 18 34 4 0
BITMAP
F00000
F00000
F00000
F00000
F00000
F00000
F00000
F00000
F00000
F00000
F7FC00
FFFE00
FFFF00
FFFF80
F80780
F007C0
F003C0
F003C0
F003C0
F003C0
F003C0
F003C0
F003C0
F003C0
F003C0
F003C0
F003C0
F003C0
F003C0
F003C0
F003C0
F003C0
F003C0
F003C0
ENDCHAR
STARTCHAR i
ENCODING 105
SWIDTH 540 0
DWIDTH 26 0
BBX 18 34 4 0
BITMAP
01E000
01E000
01E000
01E000
000000
000000
000000
000000
000000
000000
FFE000
FFE000
FFE000
FFE000
01E000
01E000
01E000
01E000
01E000
01E000
01E000
01E000
01E000
01E000
01E000
01E000
01E000
01E000
01E000
01E000
01FFC0
01FFC0
01FFC0
01FFC0
ENDCHAR
STARTCHAR j
ENCODING 106
SWIDTH 540 0
DWIDTH 26 0
BBX 12 42 7 -8
BITMAP
00F0
00F0
00F0
00F0
0000
0000
0000
0000
0000
0000
7FF0
7FF0
7FF0
7FF0
00F0
00F0
00F0
00F0
00F0
00F0
00F0
00F0
00F0
00F0
00F0
00F0
00F0
00F0
00F0
00F0
00F0
00F0
00F0
00F0
00F0
00F0
00F0
00F0
FFF0
FFE0
FFE0
FF80
ENDCHAR
STARTCHAR k
ENCODING 107
SWIDTH 540 0
DWIDTH 26 0
BBX 17 34 5 0
BITMAP
F00000
F00000
F00000
F00000
F00000
F00000
F00000
F00000
F00000
F00000
F01F00
F03E00
F07C00
F0F800
F1F000
F3F000
F7E000
F7C000
FF8000
FF0000
FF8000
FF8000
FFC000
F3E000
F3E000
F1F000
F1F000
F0F800
F07C00
F07C00
F03E00
F03E00
F01F00
F00F80
ENDCHAR
STARTCHAR l
ENCODING 108
SWIDTH 540 0
DWIDTH 26 0
BBX 20 34 3 0
BITMAP
FFF000
FFF000
FFF000
FFF000
01F000
01F000
01F000
01F000
01F000
01F000
01F000
01F000
01F000
01F000
01F000
01F000
01F000
01F000
01F000
01F000
01F000
01F000
01F000
01F000
01F000
01F000
01F000
01F000
01F000
01F000
00FFF0
00FFF0
00FFF0
007FF0
ENDCHAR
STARTCHAR m
ENCODING 109
SWIDTH 540 0
DWIDTH 26 0
BBX 22 24 2 0
BITMAP
F7C3E0
FFEFF0
FFFFF8
FFFFF8
F07C3C
F0783C
F0783C
F0783C
F0783C
F0783C
F0783C
F0783C
F0783C
F0783C
F0783C
F0783C
F0783C
F0783C
F0783C
F0783C
F0783C
F0783C
F0783C
F0783C
ENDCHAR
STARTCHAR n
ENCODING 110
SWIDTH 540 0
DWIDTH 26 0
BBX 18 24 4 0
BITMAP
F7FC00
FFFE00
FFFF00
FFFF80
F80780
F007C0
F003C0
F003C0
F003C0
F003C0
F003C0
F003C0
F003C0
F003C0
F003C0
F003C0
F003C0
F003C0
F003C0
F003C0
F003C0
F003C0
F003C0
F003C0
ENDCHAR
STARTCHAR o
ENCODING 111
SWIDTH 540 0
DWIDTH 26 0
BBX 18 24 4 0
BITMAP
0FF800
3FFE00
7FFF80
7FFF80
F80780
F003C0
F003C0
F003C0
F003C0
F003C0
F003C0
F003C0
F003C0
F003C0
F003C0
F003C0
F003C0
F003C0
F003C0
F80780
7FFF80
7FFF80
3FFF00
0FFC00
ENDCHAR
STARTCHAR p
ENCODING 112
SWIDTH 540 0
DWIDTH 26 0
BBX 18 32 4 -8
BITMAP
F7F800
FFFE00
FFFF00
FFFF80
F80780
F007C0
F003C0
F003C0
F003C0
F003C0
F003C0
F003C0
F003C0
F003C0
F003C0
F003C0
F003C0
F003C0
F007C0
F00780
FFFF80
FFFF00
FFFE00
FFF800
F00000
F00000
F00000
F00000
F00000
F00000
F00000
F00000
ENDCHAR
STARTCHAR q
ENCODING 113
SWIDTH 540 0
DWIDTH 26 0
BBX 18 32 4 -8
BITMAP
0FFFC0
3FFFC0
7FFFC0
7FFFC0
F803C0
F003C0
F003C0
F003C0
F003C0
F003C0
F003C0
F003C0
F003C0
F003C0
F003C0
F003C0
F003C0
F003C0
F003C0
F807C0
7FFFC0
7FFFC0
3FFFC0
0FFBC0
0003C0
0003C0
0003C0
0003C0
0003C0
0003C0
0003C0
0003C0
ENDCHAR
STARTCHAR r
ENCODING 114
SWIDTH 540 0
DWIDTH 26 0
BBX 16 24 5 0
BITMAP
FEFF
FFFF
FFFF
FFFF
1F00
1F00
1E00
1E00
1E00
1E00
1E00
1E00
1E00
1E00
1E00
1E00
1E00
1E00
1E00
1E00
FFF8
FFF8
FFF8
FFF8
ENDCHAR
STARTCHAR s
ENCODING 115
SWIDTH 540 0
DWIDTH 26 0
BBX 14 24 6 0
BITMAP
1FF8
7FF8
FFF8
FFF8
F000
F000
F000
F000
F000
F000
FFE0
7FF8
3FF8
03FC
003C
003C
003C
003C
003C
003C
FFFC
FFF8
FFF0
FFC0
ENDCHAR
STARTCHAR t
ENCODING 116
SWIDTH 540 0
DWIDTH 26 0
BBX 16 30 5 0
BITMAP
0780
0780
0780
0780
0780
0780
FFFF
FFFF
FFFF
FFFF
0780
0780
0780
0780
0780
0780
0780
0780
0780
0780
0780
0780
0780
0780
0780
0780
07FF
07FF
03FF
01FF
ENDCHAR
STARTCHAR u
ENCODING 117
SWIDTH 540 0
DWIDTH 26 0
BBX 17 24 4 0
BITMAP
F80780
F80780
F80780
F80780
F80780
F80780
F80780
F80780
F80780
F80780
F80780
F80780
F80780
F80780
F80780
F80780
F80780
F80780
780780
780780
7FFF80
3FFF80
1FFF80
07F380
ENDCHAR
STARTCHAR v
ENCODING 118
SWIDTH 540 0
DWIDTH 26 0
BBX 20 24 3 0
BITMAP
F801F0
7801E0
7801E0
7801E0
7C03E0
3C03C0
3C03C0
3E03C0
1E0780
1E0780
1E0780
1F0780
0F0F00
0F0F00
0F0F00
079E00
079E00
079E00
07DE00
03FC00
03FC00
03FC00
01F800
01F800
ENDCHAR
STARTCHAR w
ENCODING 119
SWIDTH 540 0
DWIDTH 26 0
BBX 22 24 2 0
BITMAP
F0003C
F0003C
F0003C
F0003C
F03838
787838
787878
787878
787C78
787C78
38FC70
38FC70
3CFC70
3CFEF0
3DEEF0
3DCEE0
1DCEE0
1DCEE0
1DCFE0
1F8FE0
1F87E0
0F87C0
0F87C0
0F87C0
ENDCHAR
STARTCHAR x
ENCODING 120
SWIDTH 540 0
DWIDTH 26 0
BBX 20 24 3 0
BITMAP
7C03E0
3C03C0
3E07C0
1E0780
1F0F00
0F9F00
079E00
07FE00
03FC00
03F800
01F800
00F000
01F800
03F800
03FC00
07FE00
079E00
0F1F00
1F0F00
1E0F80
3E07C0
3C03C0
7C03E0
F801F0
ENDCHAR
STARTCHAR y
ENCODING 121
SWIDTH 540 0
DWIDTH 26 0
BBX 20 32 3 -8
BITMAP
F800F0
7801E0
7801E0
7801E0
3C03E0
3C03C0
3C03C0
3E03C0
1E0780
1E0780
1F0780
0F0780
0F0F00
0F0F00
078F00
078F00
079E00
03DE00
03DE00
03DC00
01FC00
01FC00
01FC00
00F800
007800
00F800
00F000
00F000
0FF000
0FE000
0FE000
0F8000
ENDCHAR
STARTCHAR z
ENCODING 122
SWIDTH 540 0
DWIDTH 26 0
BBX 16 24 5 0
BITMAP
7FFF
7FFF
7FFF
7FFF
001F
003E
007C
007C
00F8
01F0
01F0
03E0
07C0
07C0
0F80
1F00
1E00
3E00
7C00
F800
FFFE
FFFE
FFFE
FFFE
ENDCHAR
STARTCHAR braceleft
ENCODING 123
SWIDTH 540 0
DWIDTH 26 0
BBX 12 45 7 -6
BITMAP
03F0
07F0
0FF0
0FF0
0E00
1E00
1E00
1E00
1E00
1E00
1E00
1E00
1E00
1E00
1E00
1E00
1E00
1E00
1E00
3E00
FC00
F800
E000
F800
FC00
3E00
1E00
1E00
1E00
1E00
1E00
1E00
1E00
1E00
1E00
1E00
1E00
1E00
1E00
1E00
0E00
0FF0
0FF0
07F0
03F0
ENDCHAR
STARTCHAR bar
ENCODING 124
SWIDTH 540 0
DWIDTH 26 0
BBX 4 44 11 -5
BITMAP
F0
F0
F0
F0
F0
F0
F0
F0
F0
F0
F0
F0
F0
F0
F0
F0
F0
F0
F0
F0
F0
F0
F0
F0
F0
F0
F0
F0
F0
F0
F0
F0
F0
F0
F0
F0
F0
F0
F0
F0
F0
F0
F0
F0
ENDCHAR
STARTCHAR braceright
ENCODING 125
SWIDTH 540 0
DWIDTH 26 0
BBX 12 45 7 -6
BITMAP
FC00
FE00
FF00
FF00
0700
0700
0700
0700
0700
0700
0700
0700
0700
0700
0700
0700
0700
0700
0780
0780
03F0
01F0
00F0
01F0
03F0
0780
0780
0700
0700
0700
0700
0700
0700
0700
0700
0700
0700
0700
0700
0700
0700
FF00
FF00
FE00
FC00
ENDCHAR
STARTCHAR asciitilde
ENCODING 126
SWIDTH 540 0
DWIDTH 26 0
BBX 16 6 5 13
BITMAP
0C00
7F83
FFFF
FFFF
E1FF
803C
ENDCHAR
STARTCHAR uni00A0
ENCODING 160
SWIDTH 540 0
DWIDTH 26 0
BBX 1 1 0 0
BITMAP
00
ENDCHAR
STARTCHAR exclamdown
ENCODING 161
SWIDTH 540 0
DWIDTH 26 0
BBX 4 34 11 -10
BITMAP
F0
F0
F0
F0
F0
00
00
00
00
00
F0
F0
F0
F0
F0
F0
F0
F0
F0
F0
F0
F0
F0
F0
F0
F0
F0
F0
F0
F0
F0
F0
F0
F0
ENDCHAR
STARTCHAR cent
ENCODING 162
SWIDTH 540 0
DWIDTH 26 0
BBX 14 34 6 -5
BITMAP
03C0
03C0
03C0
03C0
03C0
0FFC
3FFC
7FFC
7FFC
F800
F000
F000
F000
F000
F000
F000
F000
F000
F000
F000
F000
F000
F000
F000
F800
FFFC
7FFC
3FFC
0FFC
03C0
03C0
03C0
03C0
03C0
ENDCHAR
STARTCHAR sterling
ENCODING 163
SWIDTH 540 0
DWIDTH 26 0
BBX 17 34 4 0
BITMAP
007F80
01FF80
03FF80
07FF80
0F8000
0F0000
0F0000
0F0000
0F0000
0F0000
0F0000
0F0000
0F0000
0F0000
FFFC00
FFFC00
FFFC00
FFFC00
0F0000
0F0000
0F0000
0F0000
0F0000
0F0000
0F0000
0F0000
0F0000
0F0000
0F0000
0F0000
FFFF80
FFFF80
FFFF80
FFFF80
ENDCHAR
STARTCHAR currency
ENCODING 164
SWIDTH 540 0
DWIDTH 26 0
BBX 24 24 1 2
BITMAP
200004
70000E
F9FF9F
7FFFFE
3FFFFC
1FFFF8
1E00F8
1E0078
1E0078
3E0078
3E0078
3E0078
3E0078
3E0078
3E0078
1E0078
1E0078
1E00F8
1FFFF8
3FFFFC
7FFFFE
F9FF9F
70000E
200004
ENDCHAR
STARTCHAR yen
ENCODING 165
SWIDTH 540 0
DWIDTH 26 0
BBX 20 34 3 0
BITMAP
F000F0
F801F0
7801E0
7C03E0
3C03C0
3E07C0
1E0780
1F0780
0F0F00
0F0F00
0F9E00
079E00
07FC00
03FC00
03FC00
01F800
01F800
3FFFC0
3FFFC0
3FFFC0
3FFFC0
00F000
00F000
00F000
00F000
3FFFC0
3FFFC0
3FFFC0
3FFFC0
00F000
00F000
00F000
00F000
00F000
ENDCHAR
STARTCHAR brokenbar
ENCODING 166
SWIDTH 540 0
DWIDTH 26 0
BBX 4 44 11 -5
BITMAP
F0
F0
F0
F0
F0
F0
F0
F0
F0
F0
F0
F0
F0
F0
F0
F0
F0
00
00
00
00
00
00
00
00
00
00
F0
F0
F0
F0
F0
F0
F0
F0
F0
F0
F0
F0
F0
F0
F0
F0
F0
ENDCHAR
STARTCHAR section
ENCODING 167
SWIDTH 540 0
DWIDTH 26 0
BBX 15 34 5 0
BITMAP
07FC
1FFC
3FFC
3FFC
7C00
7800
7800
7800
7800
7C00
3FF0
3FFC
3FFC
7FFE
781E
F81E
F81E
F81E
F81E
781E
7FFE
7FFC
3FF8
0FFC
003C
001E
001E
001E
001E
003E
3FFC
3FFC
3FF8
3FE0
ENDCHAR
STARTCHAR dieresis
ENCODING 168
SWIDTH 540 0
DWIDTH 26 0
BBX 14 4 6 29
BITMAP
F03C
F03C
F03C
F03C
ENDCHAR
STARTCHAR copyright
ENCODING 169
SWIDTH 540 0
DWIDTH 26 0
BBX 24 34 1 0
BITMAP
07FFE0
1FFFF8
3FFFFC
7FFFFE
78001E
F0000E
F0000F
F0000F
F03F0F
F0FF0F
F0E00F
F1C00F
F1C00F
F1C00F
F1C00F
F1C00F
F1C00F
F1C00F
F1C00F
F1C00F
F1C00F
F1C00F
F1C00F
F0E00F
F0FF0F
F07F0F
F0000F
F0000F
F0000E
78001E
7FFFFE
3FFFFC
1FFFF8
07FFE0
ENDCHAR
STARTCHAR ordfeminine
ENCODING 170
SWIDTH 540 0
DWIDTH 26 0
BBX 14 34 6 0
BITMAP
7F80
7FE0
7FE0
00F0
0070
0070
0070
1FF0
7FF0
7FF0
F070
E070
E070
E070
E070
F0F0
FFFC
7FFC
1F9C
0000
0000
0000
0000
0000
0000
0000
0000
0000
0000
0000
7FF8
7FF8
7FF8
7FF8
ENDCHAR
STARTCHAR guillemotleft
ENCODING 171
SWIDTH 540 0
DWIDTH 26 0
BBX 16 20 5 4
BITMAP
0F0F
0E0E
0E1E
1E1C
1C3C
3C3C
3C3C
7C78
7878
78F8
F8F8
7878
7C78
3C3C
3C3C
1C3C
1E1C
0E1E
0E0E
0F0F
ENDCHAR
STARTCHAR logicalnot
ENCODING 172
SWIDTH 540 0
DWIDTH 26 0
BBX 20 12 3 5
BITMAP
FFFFF0
FFFFF0
FFFFF0
FFFFF0
0000F0
0000F0
0000F0
0000F0
0000F0
0000F0
0000F0
0000F0
ENDCHAR
STARTCHAR uni00AD
ENCODING 173
SWIDTH 540 0
DWIDTH 26 0
BBX 16 4 5 13
BITMAP
FFFF
FFFF
FFFF
FFFF
ENDCHAR
STARTCHAR registered
ENCODING 174
SWIDTH 540 0
DWIDTH 26 0
BBX 24 34 1 0
BITMAP
07FFE0
1FFFF8
3FFFFC
7FFFFE
78001E
F0000E
F0000F
F0000F
F1FE0F
F1FF0F
F1C78F
F1C38F
F1C38F
F1C38F
F1C38F
F1C38F
F1C78F
F1FF0F
F1FE0F
F1CE0F
F1C70F
F1C70F
F1C38F
F1C38F
F1C1CF
F1C1EF
F0000F
F0000F
F0000E
78001E
7FFFFE
3FFFFC
1FFFF8
07FFE0
ENDCHAR
STARTCHAR macron
ENCODING 175
SWIDTH 540 0
DWIDTH 26 0
BBX 12 4 7 29
BITMAP
FFF0
FFF0
FFF0
FFF0
ENDCHAR
STARTCHAR degree
ENCODING 176
SWIDTH 540 0
DWIDTH 26 0
BBX 14 15 6 19
BITMAP
0FC0
3FF0
7FF8
7878
F03C
F03C
F03C
F03C
F03C
F03C
F03C
7878
7FF8
3FF0
0FC0
ENDCHAR
STARTCHAR plusminus
ENCODING 177
SWIDTH 540 0
DWIDTH 26 0
BBX 18 24 4 0
BITMAP
01E000
01E000
01E000
01E000
01E000
01E000
01E000
FFFFC0
FFFFC0
FFFFC0
FFFFC0
01E000
01E000
01E000
01E000
01E000
01E000
01E000
000000
000000
FFFFC0
FFFFC0
FFFFC0
FFFFC0
ENDCHAR
STARTCHAR twosuperior
ENCODING 178
SWIDTH 540 0
DWIDTH 26 0
BBX 12 25 7 9
BITMAP
7F00
7FC0
7FE0
7FE0
00E0
00E0
00E0
00E0
00E0
00E0
01E0
01E0
03C0
0780
0780
0F00
1E00
3E00
3C00
7800
F000
FFF0
FFF0
FFF0
FFF0
ENDCHAR
STARTCHAR threesuperior
ENCODING 179
SWIDTH 540 0
DWIDTH 26 0
BBX 10 25 8 9
BITMAP
FE00
FF00
FF80
FFC0
03C0
03C0
03C0
03C0
03C0
07C0
7F80
7F00
7F80
7FC0
03C0
01C0
01C0
01C0
01C0
01C0
03C0
FFC0
FF80
FF00
F800
ENDCHAR
STARTCHAR acute
ENCODING 180
SWIDTH 540 0
DWIDTH 26 0
BBX 10 7 8 28
BITMAP
07C0
0F80
0F00
1E00
3C00
7C00
F800
ENDCHAR
STARTCHAR mu
ENCODING 181
SWIDTH 540 0
DWIDTH 26 0
BBX 16 32 5 -8
BITMAP
F00F
F00F
F00F
F00F
F00F
F00F
F00F
F00F
F00F
F00F
F00F
F00F
F00F
F00F
F00F
F00F
F00F
F00F
F00F
F81F
FFFF
FFFF
FFFF
FFEF
F000
F000
F000
F000
F000
F000
F000
F000
ENDCHAR
STARTCHAR paragraph
ENCODING 182
SWIDTH 540 0
DWIDTH 26 0
BBX 19 34 3 0
BITMAP
0FF1E0
3FF1E0
7FF1E0
7FF1E0
F801E0
F001E0
F001E0
F001E0
F001E0
F001E0
F001E0
F801E0
7FF1E0
7FF1E0
3FF1E0
0FF1E0
00F1E0
00F1E0
00F1E0
00F1E0
00F1E0
00F1E0
00F1E0
00F1E0
00F1E0
00F1E0
00F1E0
00F1E0
00F1E0
00F1E0
00F1E0
00F1E0
00F1E0
00F1E0
ENDCHAR
STARTCHAR periodcentered
ENCODING 183
SWIDTH 540 0
DWIDTH 26 0
BBX 4 5 11 12
BITMAP
F0
F0
F0
F0
F0
ENDCHAR
STARTCHAR cedilla
ENCODING 184
SWIDTH 540 0
DWIDTH 26 0
BBX 8 12 9 -10
BITMAP
70
70
70
78
7E
7F
0F
07
FF
FF
FE
FC
ENDCHAR
STARTCHAR onesuperior
ENCODING 185
SWIDTH 540 0
DWIDTH 26 0
BBX 12 24 7 10
BITMAP
1F00
7F00
FF00
F700
8700
0700
0700
0700
0700
0700
0700
0700
0700
0700
0700
0700
0700
0700
0700
0700
FFF0
FFF0
FFF0
FFF0
ENDCHAR
STARTCHAR ordmasculine
ENCODING 186
SWIDTH 540 0
DWIDTH 26 0
BBX 14 34 6 0
BITMAP
1FC0
3FF0
7FF8
7878
7038
F038
F038
F038
F038
F038
F038
F038
F038
7038
7878
7FF8
3FF0
1FC0
0000
0000
0000
0000
0000
0000
0000
0000
0000
0000
0000
0000
FFFC
FFFC
FFFC
FFFC
ENDCHAR
STARTCHAR guillemotright
ENCODING 187
SWIDTH 540 0
DWIDTH 26 0
BBX 16 20 5 4
BITMAP
F0E0
7070
7870
7878
3878
3C3C
3C3C
1E3C
1E1E
1F1E
1F1F
1E1E
1E3C
3C3C
3C3C
3878
7878
7870
7070
F0E0
ENDCHAR
STARTCHAR onequarter
ENCODING 188
SWIDTH 540 0
DWIDTH 26 0
BBX 24 44 1 -5
BITMAP
000078
000070
0000F0
0000F0
0000E0
3C01E0
FC01E0
FC01C0
FC01C0
9C03C0
1C03C0
1C0380
1C0380
1C0780
1C0780
1C0778
1C0F70
1C0F70
1C0E70
1C0EF0
1C1EF0
1C1EE0
1C1CE0
1C3CE6
1C3CEE
1C3DEE
FF39CE
FF79CE
FF79CE
FF71DE
0071FF
00F1FF
00F1FF
00E1FF
01E00E
01E00E
01C00E
01C00E
03C00E
03C000
038000
038000
078000
078000
ENDCHAR
STARTCHAR onehalf
ENCODING 189
SWIDTH 540 0
DWIDTH 26 0
BBX 25 44 1 -5
BITMAP
0000F800
0000F000
0000F000
0000F000
0001F000
3C01E000
FC01E000
FC01E000
FC03C000
9C03C000
1C03C000
1C07C000
1C078000
1C078000
1C078000
1C0F7C00
1C0F7F00
1C0F7F00
1C0F7F00
1C1E0700
1C1E0700
1C1E0700
1C1E0700
1C3C0700
1C3C0700
1C3C0700
FF380F00
FF780F00
FF780E00
FF781E00
00701E00
00F03C00
00F03C00
00F07800
01E07800
01E07F80
01E07F80
01C07F80
03C07F80
03C00000
03C00000
03800000
07800000
07800000
ENDCHAR
STARTCHAR threequarters
ENCODING 190
SWIDTH 540 0
DWIDTH 26 0
BBX 24 44 1 -5
BITMAP
000070
0000F0
0000F0
0000E0
0001E0
F801E0
FE01C0
FE01C0
0F03C0
0703C0
070380
070380
070780
070780
070700
0F0F78
7E0F70
7C0E70
7F0E70
0F1EF0
071EF0
079CE0
07BCE0
07BCE6
073CEE
0F39EE
FF79CE
FE79CE
FC71CE
0071DE
00F1FF
00F1FF
00E1FF
01E1FF
01E00E
01C00E
01C00E
03C00E
03C00E
038000
038000
078000
078000
0F0000
ENDCHAR
STARTCHAR questiondown
ENCODING 191
SWIDTH 540 0
DWIDTH 26 0
BBX 14 34 6 -10
BITMAP
03E0
03E0
03E0
03E0
03E0
0000
0000
0000
0000
0000
03C0
03C0
03C0
03C0
03C0
03C0
07C0
0F80
1F00
3E00
7C00
7800
F800
F000
F000
F000
F000
F000
F800
7C00
7FFC
3FFC
1FFC
02FC
ENDCHAR
STARTCHAR Agrave
ENCODING 192
SWIDTH 540 0
DWIDTH 26 0
BBX 22 41 2 0
BITMAP
07C000
03E000
01F000
00F800
007C00
001E00
000000
00FC00
00FC00
00FC00
01FE00
01FE00
01FE00
01CE00
03CF00
03CF00
03CF00
038F00
038780
078780
078780
078780
070380
0F03C0
0F03C0
0F03C0
0F03C0
1E01E0
1E01E0
1FFFE0
1FFFE0
3FFFF0
3FFFF0
3C00F0
3C00F0
7C00F0
780078
780078
780078
780078
F8007C
ENDCHAR
STARTCHAR Aacute
ENCODING 193
SWIDTH 540 0
DWIDTH 26 0
BBX 22 41 2 0
BITMAP
000F80
001F00
003E00
007C00
00F000
01E000
000000
00FC00
00FC00
00FC00
01FE00
01FE00
01DE00
01CE00
03CF00
03CF00
03CF00
038F00
038780
078780
078780
070780
070380
0F03C0
0F03C0
0F03C0
0E03C0
1E01E0
1E01E0
1FFFE0
1FFFE0
3FFFF0
3FFFF0
3C00F0
3C00F0
7C00F0
780078
780078
780078
780078
F8007C
ENDCHAR
STARTCHAR Acircumflex
ENCODING 194
SWIDTH 540 0
DWIDTH 26 0
BBX 22 41 2 0
BITMAP
007800
00FC00
01FE00
03DF00
078F80
1F87C0
000000
00FC00
00FC00
00FC00
01FE00
01FE00
01FE00
01CE00
03CF00
03CF00
03CF00
038F00
038780
078780
078780
078780
070380
0F03C0
0F03C0
0F03C0
0F03C0
1E01E0
1E01E0
1FFFE0
1FFFE0
3FFFF0
3FFFF0
3C00F0
3C00F0
7C00F0
780078
780078
780078
780078
F8007C
ENDCHAR
STARTCHAR Atilde
ENCODING 195
SWIDTH 540 0
DWIDTH 26 0
BBX 22 41 2 0
BITMAP
008000
07F040
0FFFC0
0FFFC0
0E3FC0
080700
000000
00FC00
00FC00
00FC00
01FE00
01FE00
01FE00
01CE00
03CF00
03CF00
03CF00
038F00
038780
078780
078780
078780
070380
0F03C0
0F03C0
0F03C0
0F03C0
1E01E0
1E01E0
1FFFE0
1FFFE0
3FFFF0
3FFFF0
3C00F0
3C00F0
7C00F0
780078
780078
780078
780078
F8007C
ENDCHAR
STARTCHAR Adieresis
ENCODING 196
SWIDTH 540 0
DWIDTH 26 0
BBX 22 39 2 0
BITMAP
0F03C0
0F03C0
0F03C0
0F03C0
000000
00FC00
00FC00
00FC00
01FE00
01FE00
01FE00
01CE00
03CF00
03CF00
03CF00
038F00
038780
078780
078780
078780
070380
0F03C0
0F03C0
0F03C0
0F03C0
1E01E0
1E01E0
1FFFE0
1FFFE0
3FFFF0
3FFFF0
3C00F0
3C00F0
7C00F0
780078
780078
780078
780078
F8007C
ENDCHAR
STARTCHAR Aring
ENCODING 197
SWIDTH 540 0
DWIDTH 26 0
BBX 22 41 2 0
BITMAP
007C00
01FE00
01CE00
018600
018600
018600
01CE00
01FE00
00FC00
00FC00
01FE00
01FE00
01FE00
01CE00
01CF00
03CF00
03CF00
038F00
038700
078780
078780
078780
070380
0F03C0
0F03C0
0F03C0
0F03C0
1E01E0
1E01E0
1FFFE0
1FFFE0
3FFFF0
3FFFF0
3C00F0
3C00F0
7C00F0
780078
780078
780078
780078
F8007C
ENDCHAR
STARTCHAR AE
ENCODING 198
SWIDTH 540 0
DWIDTH 26 0
BBX 24 34 1 0
BITMAP
00FFFE
00FFFE
00FFFE
01FFFE
01FE00
01DE00
01DE00
03DE00
03DE00
03DE00
038E00
078E00
078E00
078F00
070F00
0F0FFE
0F0FFE
0F0FFE
0E0FFE
1E0F00
1E0F00
1E0700
1FFF00
3FFF80
3FFF80
3FFF80
3C0780
780780
780780
780780
7807FF
F003FF
F003FF
F003FF
ENDCHAR
STARTCHAR Ccedilla
ENCODING 199
SWIDTH 540 0
DWIDTH 26 0
BBX 16 44 5 -10
BITMAP
07FF
1FFF
3FFF
7FFF
7C00
7800
F000
F000
F000
F000
F000
F000
F000
F000
F000
F000
F000
F000
F000
F000
F000
F000
F000
F000
F000
F000
F000
F000
7800
7C00
7FFF
3FFF
1FFF
07FF
01C0
01F8
01FC
01FC
001E
001E
03FE
03FC
03FC
03F8
ENDCHAR
STARTCHAR Egrave
ENCODING 200
SWIDTH 540 0
DWIDTH 26 0
BBX 16 41 5 0
BITMAP
3E00
1F00
0F80
07C0
03E0
01F0
0000
FFFF
FFFF
FFFF
FFFF
F000
F000
F000
F000
F000
F000
F000
F000
F000
F000
F000
FFFE
FFFE
FFFE
FFFE
F000
F000
F000
F000
F000
F000
F000
F000
F000
F000
F000
FFFF
FFFF
FFFF
FFFF
ENDCHAR
STARTCHAR Eacute
ENCODING 201
SWIDTH 540 0
DWIDTH 26 0
BBX 16 41 5 0
BITMAP
007C
00F8
01F0
03E0
0780
0F00
0000
FFFF
FFFF
FFFF
FFFF
F000
F000
F000
F000
F000
F000
F000
F000
F000
F000
F000
FFFE
FFFE
FFFE
FFFE
F000
F000
F000
F000
F000
F000
F000
F000
F000
F000
F000
FFFF
FFFF
FFFF
FFFF
ENDCHAR
STARTCHAR Ecircumflex
ENCODING 202
SWIDTH 540 0
DWIDTH 26 0
BBX 16 41 5 0
BITMAP
03C0
07E0
0FF0
1EF8
3E7C
FC3E
0001
FFFF
FFFF
FFFF
FFFF
F000
F000
F000
F000
F000
F000
F000
F000
F000
F000
F000
FFFE
FFFE
FFFE
FFFE
F000
F000
F000
F000
F000
F000
F000
F000
F000
F000
F000
FFFF
FFFF
FFFF
FFFF
ENDCHAR
STARTCHAR Edieresis
ENCODING 203
SWIDTH 540 0
DWIDTH 26 0
BBX 16 39 5 0
BITMAP
781E
781E
781E
781E
0000
FFFF
FFFF
FFFF
FFFF
F000
F000
F000
F000
F000
F000
F000
F000
F000
F000
F000
FFFE
FFFE
FFFE
FFFE
F000
F000
F000
F000
F000
F000
F000
F000
F000
F000
F000
FFFF
FFFF
FFFF
FFFF
ENDCHAR
STARTCHAR Igrave
ENCODING 204
SWIDTH 540 0
DWIDTH 26 0
BBX 12 41 7 0
BITMAP
F800
7C00
3E00
1F00
0F80
07C0
0000
FFF0
FFF0
FFF0
FFF0
0F00
0F00
0F00
0F00
0F00
0F00
0F00
0F00
0F00
0F00
0F00
0F00
0F00
0F00
0F00
0F00
0F00
0F00
0F00
0F00
0F00
0F00
0F00
0F00
0F00
0F00
FFF0
FFF0
FFF0
FFF0
ENDCHAR
STARTCHAR Iacute
ENCODING 205
SWIDTH 540 0
DWIDTH 26 0
BBX 12 41 7 0
BITMAP
03F0
03E0
07C0
0F00
1E00
3C00
4000
FFF0
FFF0
FFF0
FFF0
0F00
0F00
0F00
0F00
0F00
0F00
0F00
0F00
0F00
0F00
0F00
0F00
0F00
0F00
0F00
0F00
0F00
0F00
0F00
0F00
0F00
0F00
0F00
0F00
0F00
0F00
FFF0
FFF0
FFF0
FFF0
ENDCHAR
STARTCHAR Icircumflex
ENCODING 206
SWIDTH 540 0
DWIDTH 26 0
BBX 16 41 5 0
BITMAP
03C0
07E0
0FF0
1EF8
3E7C
FC3E
0001
3FFC
3FFC
3FFC
3FFC
03C0
03C0
03C0
03C0
03C0
03C0
03C0
03C0
03C0
03C0
03C0
03C0
03C0
03C0
03C0
03C0
03C0
03C0
03C0
03C0
03C0
03C0
03C0
03C0
03C0
03C0
3FFC
3FFC
3FFC
3FFC
ENDCHAR
STARTCHAR Idieresis
ENCODING 207
SWIDTH 540 0
DWIDTH 26 0
BBX 14 39 6 0
BITMAP
F03C
F03C
F03C
F03C
0000
7FF8
7FF8
7FF8
7FF8
0780
0780
0780
0780
0780
0780
0780
0780
0780
0780
0780
0780
0780
0780
0780
0780
0780
0780
0780
0780
0780
0780
0780
0780
0780
0780
7FF8
7FF8
7FF8
7FF8
ENDCHAR
STARTCHAR Eth
ENCODING 208
SWIDTH 540 0
DWIDTH 26 0
BBX 20 34 2 0
BITMAP
3FFF00
3FFFC0
3FFFE0
3FFFF0
3E01F0
3E00F0
3E00F0
3E00F0
3E00F0
3E00F0
3E00F0
3E00F0
3E00F0
3E00F0
3E00F0
FFF0F0
FFF0F0
FFF0F0
FFF0F0
3E00F0
3E00F0
3E00F0
3E00F0
3E00F0
3E00F0
3E00F0
3E00F0
3E00F0
3E00F0
3E01F0
3FFFF0
3FFFE0
3FFFC0
3FFF00
ENDCHAR
STARTCHAR Ntilde
ENCODING 209
SWIDTH 540 0
DWIDTH 26 0
BBX 18 41 4 0
BITMAP
020000
1FC300
3FFF00
3FFF00
38FF00
203C00
000000
FE03C0
FE03C0
FE03C0
FE03C0
FF03C0
FF03C0
FF03C0
F703C0
F783C0
F783C0
F783C0
F383C0
F3C3C0
F3C3C0
F3C3C0
F1C3C0
F1E3C0
F1E3C0
F1E3C0
F0E3C0
F0F3C0
F0F3C0
F0F3C0
F073C0
F07BC0
F07BC0
F07BC0
F03BC0
F03FC0
F03FC0
F03FC0
F01FC0
F01FC0
F01FC0
ENDCHAR
STARTCHAR Ograve
ENCODING 210
SWIDTH 540 0
DWIDTH 26 0
BBX 20 41 3 0
BITMAP
0F8000
07C000
03E000
01F000
00F800
007C00
000000
07FE00
1FFF80
3FFFC0
7FFFC0
7C03E0
7801E0
F801E0
F801F0
F801F0
F801F0
F801F0
F801F0
F801F0
F801F0
F801F0
F801F0
F801F0
F801F0
F801F0
F801F0
F801F0
F801F0
F801F0
F801F0
F801F0
F801F0
F801F0
F801E0
7801E0
7C03E0
7FFFC0
3FFFC0
1FFF80
07FE00
ENDCHAR
STARTCHAR Oacute
ENCODING 211
SWIDTH 540 0
DWIDTH 26 0
BBX 20 41 3 0
BITMAP
001F00
003E00
007C00
00F800
01F000
03C000
000000
07FE00
1FFF80
3FFFC0
7FFFC0
7C03E0
7801E0
F801E0
F801F0
F801F0
F801F0
F801F0
F801F0
F801F0
F801F0
F801F0
F801F0
F801F0
F801F0
F801F0
F801F0
F801F0
F801F0
F801F0
F801F0
F801F0
F801F0
F801F0
F801E0
7801E0
7C03E0
7FFFC0
3FFFC0
1FFF80
07FE00
ENDCHAR
STARTCHAR Ocircumflex
ENCODING 212
SWIDTH 540 0
DWIDTH 26 0
BBX 20 41 3 0
BITMAP
00F000
01F800
03FC00
07BE00
0F1F00
3F0F80
000000
07FE00
1FFF80
3FFFC0
7FFFC0
7C03E0
7801E0
F801E0
F801F0
F801F0
F801F0
F801F0
F801F0
F801F0
F801F0
F801F0
F801F0
F801F0
F801F0
F801F0
F801F0
F801F0
F801F0
F801F0
F801F0
F801F0
F801F0
F801F0
F801E0
7801E0
7C03E0
7FFFC0
3FFFC0
1FFF80
07FE00
ENDCHAR
STARTCHAR Otilde
ENCODING 213
SWIDTH 540 0
DWIDTH 26 0
BBX 20 41 3 0
BITMAP
010000
0FE180
1FFF80
1FFF80
1C7F80
101E00
000000
07FE00
1FFF80
3FFFC0
7FFFC0
7C03E0
7801E0
F801E0
F801F0
F801F0
F801F0
F801F0
F801F0
F801F0
F801F0
F801F0
F801F0
F801F0
F801F0
F801F0
F801F0
F801F0
F801F0
F801F0
F801F0
F801F0
F801F0
F801F0
F801E0
7801E0
7C03E0
7FFFC0
3FFFC0
1FFF80
07FE00
ENDCHAR
STARTCHAR Odieresis
ENCODING 214
SWIDTH 540 0
DWIDTH 26 0
BBX 20 39 3 0
BITMAP
1E0780
1E0780
1E0780
1E0780
000000
07FE00
1FFF80
3FFFC0
7FFFC0
7C03E0
7801E0
F801E0
F801F0
F801F0
F801F0
F801F0
F801F0
F801F0
F801F0
F801F0
F801F0
F801F0
F801F0
F801F0
F801F0
F801F0
F801F0
F801F0
F801F0
F801F0
F801F0
F801F0
F801E0
7801E0
7C03E0
7FFFC0
3FFFC0
1FFF80
07FE00
ENDCHAR
STARTCHAR multiply
ENCODING 215
SWIDTH 540 0
DWIDTH 26 0
BBX 16 16 5 7
BITMAP
2004
700E
F81F
7C3E
3E7C
1FF8
0FF0
07E0
07E0
0FF0
1FF8
3E7C
7C3E
F81F
F00F
6006
ENDCHAR
STARTCHAR Oslash
ENCODING 216
SWIDTH 540 0
DWIDTH 26 0
BBX 20 42 3 -4
BITMAP
0003C0
000780
000780
000780
07FF00
1FFF80
3FFFC0
7FFFC0
7C1FE0
781FE0
F81FE0
F81DF0
F83DF0
F83DF0
F83DF0
F839F0
F879F0
F879F0
F879F0
F8F1F0
F8F1F0
F8F1F0
F8E1F0
F9E1F0
F9E1F0
F9E1F0
FBC1F0
FBC1F0
FBC1F0
FB81F0
FF81F0
FF81E0
7F81E0
7F03E0
7FFFC0
3FFFC0
1FFF80
0FFE00
1E0000
1E0000
1C0000
3C0000
ENDCHAR
STARTCHAR Ugrave
ENCODING 217
SWIDTH 540 0
DWIDTH 26 0
BBX 18 41 4 0
BITMAP
3E0000
1F0000
0F8000
07C000
03E000
01F000
000000
F003C0
F003C0
F003C0
F003C0
F003C0
F003C0
F003C0
F003C0
F003C0
F003C0
F003C0
F003C0
F003C0
F003C0
F003C0
F003C0
F003C0
F003C0
F003C0
F003C0
F003C0
F003C0
F003C0
F003C0
F003C0
F003C0
F003C0
F003C0
F003C0
F807C0
7FFF80
7FFF00
1FFE00
07F800
ENDCHAR
STARTCHAR Uacute
ENCODING 218
SWIDTH 540 0
DWIDTH 26 0
BBX 18 41 4 0
BITMAP
001F00
003E00
007C00
00F800
01F000
03E000
000000
F003C0
F003C0
F003C0
F003C0
F003C0
F003C0
F003C0
F003C0
F003C0
F003C0
F003C0
F003C0
F003C0
F003C0
F003C0
F003C0
F003C0
F003C0
F003C0
F003C0
F003C0
F003C0
F003C0
F003C0
F003C0
F003C0
F003C0
F003C0
F003C0
F807C0
7FFF80
7FFF00
1FFE00
07F800
ENDCHAR
STARTCHAR Ucircumflex
ENCODING 219
SWIDTH 540 0
DWIDTH 26 0
BBX 18 41 4 0
BITMAP
01E000
03F000
07F800
0FBC00
1F1E00
3E0F80
000000
F003C0
F003C0
F003C0
F003C0
F003C0
F003C0
F003C0
F003C0
F003C0
F003C0
F003C0
F003C0
F003C0
F003C0
F003C0
F003C0
F003C0
F003C0
F003C0
F003C0
F003C0
F003C0
F003C0
F003C0
F003C0
F003C0
F003C0
F003C0
F003C0
F807C0
7FFF80
7FFF00
1FFE00
07F800
ENDCHAR
STARTCHAR Udieresis
ENCODING 220
SWIDTH 540 0
DWIDTH 26 0
BBX 18 39 4 0
BITMAP
3C0F00
3C0F00
3C0F00
3C0F00
000000
F003C0
F003C0
F003C0
F003C0
F003C0
F003C0
F003C0
F003C0
F003C0
F003C0
F003C0
F003C0
F003C0
F003C0
F003C0
F003C0
F003C0
F003C0
F003C0
F003C0
F003C0
F003C0
F003C0
F003C0
F003C0
F003C0
F003C0
F003C0
F003C0
F807C0
7FFF80
7FFF00
1FFE00
07F800
ENDCHAR
STARTCHAR Yacute
ENCODING 221
SWIDTH 540 0
DWIDTH 26 0
BBX 22 41 2 0
BITMAP
000F80
001F00
003E00
007C00
00F800
01E000
000000
F8007C
780078
7C00F8
3C00F0
3E01F0
1E01E0
1F01E0
0F03C0
0F03C0
078780
078780
07CF00
03CF00
03FE00
01FE00
01FC00
00FC00
00F800
007800
007800
007800
007800
007800
007800
007800
007800
007800
007800
007800
007800
007800
007800
007800
007800
ENDCHAR
STARTCHAR Thorn
ENCODING 222
SWIDTH 540 0
DWIDTH 26 0
BBX 17 34 5 0
BITMAP
F00000
F00000
F00000
F00000
F00000
F00000
FF8000
FFFC00
FFFE00
FFFF00
F01F00
F00F80
F00780
F00780
F00780
F00780
F00780
F00780
F00780
F00780
F00780
F00F80
F00F00
FFFF00
FFFE00
FFFC00
FFF000
F00000
F00000
F00000
F00000
F00000
F00000
F00000
ENDCHAR
STARTCHAR germandbls
ENCODING 223
SWIDTH 540 0
DWIDTH 26 0
BBX 18 34 4 0
BITMAP
0FF800
3FFE00
7FFF00
FFFF00
F00F80
F00780
F00780
F00780
F00780
F00780
F01F80
F0FF80
F1FF80
F1FF80
F1E000
F1E000
F1E000
F1E000
F1E000
F1FE00
F0FF80
F07FC0
F00FC0
F003C0
F003C0
F003C0
F003C0
F003C0
F003C0
F003C0
F3FFC0
F3FF80
F3FF80
F3FE00
ENDCHAR
STARTCHAR agrave
ENCODING 224
SWIDTH 540 0
DWIDTH 26 0
BBX 20 35 3 0
BITMAP
1F0000
0F8000
07C000
03E000
01F000
00F000
007800
000000
000000
000000
000000
3FF800
3FFE00
3FFF00
3FFF00
000F80
000780
000780
000780
000780
0FFF80
3FFF80
7FFF80
7FFF80
780780
F00780
F00780
F00780
F00780
F00780
F80780
7FFFF0
7FFFF0
3FFFF0
0FF8F0
ENDCHAR
STARTCHAR aacute
ENCODING 225
SWIDTH 540 0
DWIDTH 26 0
BBX 20 35 3 0
BITMAP
000F80
001F00
003E00
007C00
007800
00F000
01E000
000000
000000
000000
000000
3FF800
3FFE00
3FFF00
3FFF00
000F80
000780
000780
000780
000780
0FFF80
3FFF80
7FFF80
7FFF80
780780
F00780
F00780
F00780
F00780
F00780
F80780
7FFFF0
7FFFF0
3FFFF0
0FF8F0
ENDCHAR
STARTCHAR acircumflex
ENCODING 226
SWIDTH 540 0
DWIDTH 26 0
BBX 20 35 3 0
BITMAP
01E000
03F000
07F800
07FC00
0F3E00
1F1E00
3E0F80
000000
000000
000000
000000
3FF800
3FFE00
3FFF00
3FFF00
000F80
000780
000780
000780
000780
0FFF80
3FFF80
7FFF80
7FFF80
780780
F00780
F00780
F00780
F00780
F00780
F80780
7FFFF0
7FFFF0
3FFFF0
0FF8F0
ENDCHAR
STARTCHAR atilde
ENCODING 227
SWIDTH 540 0
DWIDTH 26 0
BBX 20 34 3 0
BITMAP
0F0100
3FC700
3FFF00
3FFF00
307E00
001800
000000
000000
000000
000000
3FF800
3FFE00
3FFF00
3FFF00
000F80
000780
000780
000780
000780
0FFF80
3FFF80
7FFF80
7FFF80
780780
F00780
F00780
F00780
F00780
F00780
F80780
7FFFF0
7FFFF0
3FFFF0
0FF8F0
ENDCHAR
STARTCHAR adieresis
ENCODING 228
SWIDTH 540 0
DWIDTH 26 0
BBX 20 32 3 0
BITMAP
3C0F00
3C0F00
3C0F00
3C0F00
000000
000000
000000
000000
3FF800
3FFE00
3FFF00
3FFF00
000F80
000780
000780
000780
000780
0FFF80
3FFF80
7FFF80
7FFF80
780780
F00780
F00780
F00780
F00780
F00780
F80780
7FFFF0
7FFFF0
3FFFF0
0FF8F0
ENDCHAR
STARTCHAR aring
ENCODING 229
SWIDTH 540 0
DWIDTH 26 0
BBX 20 36 3 0
BITMAP
01E000
07F800
073800
061800
061C00
061C00
061800
073800
03F800
01E000
000000
000000
3FF800
3FFE00
3FFF00
3FFF00
000F80
000780
000780
000780
000780
0FFF80
3FFF80
7FFF80
7FFF80
780780
F00780
F00780
F00780
F00780
F00780
F80780
7FFFF0
7FFFF0
3FFFF0
0FF8F0
ENDCHAR
STARTCHAR ae
ENCODING 230
SWIDTH 540 0
DWIDTH 26 0
BBX 24 24 1 0
BITMAP
3FC3F0
3FFFFC
3FFFFE
3FFFFE
007E1E
003C0F
003C0F
003C0F
003C0F
03FFFF
1FFFFF
3FFFFF
7FFFFF
783C00
F03C00
F03C00
F03C00
F03C00
F03C00
F83E00
7FFFFC
7FFFFC
3FF7FC
1FC3FC
ENDCHAR
STARTCHAR ccedilla
ENCODING 231
SWIDTH 540 0
DWIDTH 26 0
BBX 14 34 6 -10
BITMAP
0FFC
3FFC
7FFC
7FFC
F800
F000
F000
F000
F000
F000
F000
F000
F000
F000
F000
F000
F000
F000
F000
F800
FFFC
7FFC
3FFC
0FFC
0380
03F0
03F8
03F8
0038
0038
07F8
07F8
07F0
07E0
ENDCHAR
STARTCHAR egrave
ENCODING 232
SWIDTH 540 0
DWIDTH 26 0
BBX 16 35 5 0
BITMAP
1F00
1F00
0F80
07C0
03E0
01E0
00F8
0000
0000
0000
0000
1FF8
3FFC
7FFE
FFFF
F00F
F00F
F00F
F00F
F00F
F00F
FFFF
FFFF
FFFF
FFFF
F000
F000
F000
F000
F000
F000
FFFE
7FFE
3FFE
0FFE
ENDCHAR
STARTCHAR eacute
ENCODING 233
SWIDTH 540 0
DWIDTH 26 0
BBX 16 35 5 0
BITMAP
003E
003E
007C
00F8
01F0
01E0
07C0
0000
0000
0000
0000
1FF8
3FFC
7FFE
FFFF
F00F
F00F
F00F
F00F
F00F
F00F
FFFF
FFFF
FFFF
FFFF
F000
F000
F000
F000
F000
F000
FFFE
7FFE
3FFE
0FFE
ENDCHAR
STARTCHAR ecircumflex
ENCODING 234
SWIDTH 540 0
DWIDTH 26 0
BBX 16 35 5 0
BITMAP
03C0
07E0
0FF0
1FF8
1E78
3C3C
7C3F
0000
0000
0000
0000
1FF8
3FFC
7FFE
FFFF
F00F
F00F
F00F
F00F
F00F
F00F
FFFF
FFFF
FFFF
FFFF
F000
F000
F000
F000
F000
F000
FFFE
7FFE
3FFE
0FFE
ENDCHAR
STARTCHAR edieresis
ENCODING 235
SWIDTH 540 0
DWIDTH 26 0
BBX 16 32 5 0
BITMAP
781E
781E
781E
781E
0000
0000
0000
0000
1FF8
3FFC
7FFE
FFFF
F00F
F00F
F00F
F00F
F00F
F00F
FFFF
FFFF
FFFF
FFFF
F000
F000
F000
F000
F000
F000
FFFE
7FFE
3FFE
0FFE
ENDCHAR
STARTCHAR igrave
ENCODING 236
SWIDTH 540 0
DWIDTH 26 0
BBX 18 35 4 0
BITMAP
1F0000
0F8000
07C000
03C000
01E000
00F000
007800
000000
000000
000000
000000
FFE000
FFE000
FFE000
FFE000
01E000
01E000
01E000
01E000
01E000
01E000
01E000
01E000
01E000
01E000
01E000
01E000
01E000
01E000
01E000
01E000
01FFC0
01FFC0
01FFC0
01FFC0
ENDCHAR
STARTCHAR iacute
ENCODING 237
SWIDTH 540 0
DWIDTH 26 0
BBX 18 35 4 0
BITMAP
001F00
003E00
007C00
007800
00F000
01E000
03C000
000000
000000
000000
000000
FFE000
FFE000
FFE000
FFE000
01E000
01E000
01E000
01E000
01E000
01E000
01E000
01E000
01E000
01E000
01E000
01E000
01E000
01E000
01E000
01E000
01FFC0
01FFC0
01FFC0
01FFC0
ENDCHAR
STARTCHAR icircumflex
ENCODING 238
SWIDTH 540 0
DWIDTH 26 0
BBX 18 35 4 0
BITMAP
01E000
03F000
07F800
0FFC00
0F3E00
1E1E00
3E0F80
000000
000000
000000
000000
FFE000
FFE000
FFE000
FFE000
01E000
01E000
01E000
01E000
01E000
01E000
01E000
01E000
01E000
01E000
01E000
01E000
01E000
01E000
01E000
01E000
01FFC0
01FFC0
01FFC0
01FFC0
ENDCHAR
STARTCHAR idieresis
ENCODING 239
SWIDTH 540 0
DWIDTH 26 0
BBX 18 32 4 0
BITMAP
3C0F00
3C0F00
3C0F00
3C0F00
000000
000000
000000
000000
FFE000
FFE000
FFE000
FFE000
01E000
01E000
01E000
01E000
01E000
01E000
01E000
01E000
01E000
01E000
01E000
01E000
01E000
01E000
01E000
01E000
01FFC0
01FFC0
01FFC0
01FFC0
ENDCHAR
STARTCHAR eth
ENCODING 240
SWIDTH 540 0
DWIDTH 26 0
BBX 16 36 5 0
BITMAP
0078
00F0
3FE0
3FF8
3FFE
3FFE
079F
078F
0F0F
000F
000F
000F
000F
000F
0FFF
3FFF
7FFF
FFFF
F00F
F00F
F00F
F00F
F00F
F00F
F00F
F00F
F00F
F00F
F00F
F00F
F00F
F81F
7FFE
7FFE
3FFC
0FF0
ENDCHAR
STARTCHAR ntilde
ENCODING 241
SWIDTH 540 0
DWIDTH 26 0
BBX 18 34 4 0
BITMAP
078100
1FE300
1FFF00
1FFF00
107E00
000800
000000
000000
000000
000000
F7FC00
FFFE00
FFFF00
FFFF80
F80780
F007C0
F003C0
F003C0
F003C0
F003C0
F003C0
F003C0
F003C0
F003C0
F003C0
F003C0
F003C0
F003C0
F003C0
F003C0
F003C0
F003C0
F003C0
F003C0
ENDCHAR
STARTCHAR ograve
ENCODING 242
SWIDTH 540 0
DWIDTH 26 0
BBX 18 35 4 0
BITMAP
0F8000
0F8000
07C000
03E000
01F000
00F000
007C00
000000
000000
000000
000000
0FF800
3FFE00
7FFF00
7FFF80
F80780
F007C0
F003C0
F003C0
F003C0
F003C0
F003C0
F003C0
F003C0
F003C0
F003C0
F003C0
F003C0
F003C0
F007C0
F80780
7FFF80
7FFF00
3FFE00
0FF800
ENDCHAR
STARTCHAR oacute
ENCODING 243
SWIDTH 540 0
DWIDTH 26 0
BBX 18 35 4 0
BITMAP
007C00
00F800
00F000
01E000
03E000
07C000
0F8000
000000
000000
000000
000000
0FF800
3FFE00
7FFF80
7FFF80
F80780
F003C0
F003C0
F003C0
F003C0
F003C0
F003C0
F003C0
F003C0
F003C0
F003C0
F003C0
F003C0
F003C0
F003C0
F80780
7FFF80
7FFF80
3FFF00
0FFC00
ENDCHAR
STARTCHAR ocircumflex
ENCODING 244
SWIDTH 540 0
DWIDTH 26 0
BBX 18 35 4 0
BITMAP
01E000
03F000
07F800
0FFC00
0F3C00
1E1E00
7C1F80
000000
000000
000000
000000
0FF800
3FFE00
7FFF80
7FFF80
F80780
F003C0
F003C0
F003C0
F003C0
F003C0
F003C0
F003C0
F003C0
F003C0
F003C0
F003C0
F003C0
F003C0
F003C0
F80780
7FFF80
7FFF80
3FFF00
0FFC00
ENDCHAR
STARTCHAR otilde
ENCODING 245
SWIDTH 540 0
DWIDTH 26 0
BBX 18 34 4 0
BITMAP
0F0100
1FC300
3FFF00
3FFF00
307E00
001800
000000
000000
000000
000000
0FF800
3FFE00
7FFF80
7FFF80
F80780
F003C0
F003C0
F003C0
F003C0
F003C0
F003C0
F003C0
F003C0
F003C0
F003C0
F003C0
F003C0
F003C0
F003C0
F80780
7FFF80
7FFF80
3FFF00
0FFC00
ENDCHAR
STARTCHAR odieresis
ENCODING 246
SWIDTH 540 0
DWIDTH 26 0
BBX 18 32 4 0
BITMAP
3C0F00
3C0F00
3C0F00
3C0F00
000000
000000
000000
000000
0FF800
3FFE00
7FFF80
7FFF80
F80780
F003C0
F003C0
F003C0
F003C0
F003C0
F003C0
F003C0
F003C0
F003C0
F003C0
F003C0
F003C0
F003C0
F003C0
F80780
7FFF80
7FFF80
3FFF00
0FFC00
ENDCHAR
STARTCHAR divide
ENCODING 247
SWIDTH 540 0
DWIDTH 26 0
BBX 18 24 4 3
BITMAP
01E000
01E000
01E000
01E000
01E000
000000
000000
000000
000000
000000
FFFFC0
FFFFC0
FFFFC0
FFFFC0
000000
000000
000000
000000
000000
01E000
01E000
01E000
01E000
01E000
ENDCHAR
STARTCHAR oslash
ENCODING 248
SWIDTH 540 0
DWIDTH 26 0
BBX 18 33 4 -4
BITMAP
000F00
000E00
001E00
001E00
001E00
0FFC00
3FFE00
7FFF00
7FFF80
F87F80
F07BC0
F073C0
F0F3C0
F0F3C0
F0F3C0
F1E3C0
F1E3C0
F1E3C0
F1C3C0
F3C3C0
F3C3C0
F383C0
F783C0
F783C0
FF8780
7FFF80
7FFF80
3FFF00
0FFC00
1E0000
1E0000
1C0000
3C0000
ENDCHAR
STARTCHAR ugrave
ENCODING 249
SWIDTH 540 0
DWIDTH 26 0
BBX 17 35 4 0
BITMAP
3E0000
1F0000
0F8000
07C000
03E000
01E000
00F000
000000
000000
000000
000000
F80780
F80780
F80780
F80780
F80780
F80780
F80780
F80780
F80780
F80780
F80780
F80780
F80780
F80780
F80780
F80780
F80780
F80780
780780
780780
7FFF80
3FFF80
1FFF80
07F380
ENDCHAR
STARTCHAR uacute
ENCODING 250
SWIDTH 540 0
DWIDTH 26 0
BBX 17 35 4 0
BITMAP
001F00
001F00
003E00
007C00
00F800
00F000
03E000
000000
000000
000000
000000
F80780
F80780
F80780
F80780
F80780
F80780
F80780
F80780
F80780
F80780
F80780
F80780
F80780
F80780
F80780
F80780
F80780
F80780
780780
780780
7FFF80
3FFF80
1FFF80
07F380
ENDCHAR
STARTCHAR ucircumflex
ENCODING 251
SWIDTH 540 0
DWIDTH 26 0
BBX 17 35 4 0
BITMAP
01E000
03F000
07F800
0FFC00
1F3C00
1E1E00
7C1F00
000000
000000
000000
000000
F80780
F80780
F80780
F80780
F80780
F80780
F80780
F80780
F80780
F80780
F80780
F80780
F80780
F80780
F80780
F80780
F80780
F80780
780780
780780
7FFF80
3FFF80
1FFF80
07F380
ENDCHAR
STARTCHAR udieresis
ENCODING 252
SWIDTH 540 0
DWIDTH 26 0
BBX 17 32 4 0
BITMAP
3C0F00
3C0F00
3C0F00
3C0F00
000000
000000
000000
000000
F80780
F80780
F80780
F80780
F80780
F80780
F80780
F80780
F80780
F80780
F80780
F80780
F80780
F80780
F80780
F80780
F80780
F80780
780780
780780
7FFF80
3FFF80
1FFF80
07F380
ENDCHAR
STARTCHAR yacute
ENCODING 253
SWIDTH 540 0
DWIDTH 26 0
BBX 20 43 3 -8
BITMAP
001F00
001E00
003E00
007C00
00F800
00F000
03E000
000000
000000
000000
000000
F800F0
7801E0
7801E0
7801E0
3C03E0
3C03C0
3C03C0
3E03C0
1E0780
1E0780
1F0780
0F0780
0F0F00
0F0F00
078F00
078F00
079E00
03DE00
03DE00
03DC00
01FC00
01FC00
01FC00
00F800
007800
00F800
00F000
00F000
0FF000
0FE000
0FE000
0F8000
ENDCHAR
STARTCHAR thorn
ENCODING 254
SWIDTH 540 0
DWIDTH 26 0
BBX 17 42 5 -8
BITMAP
F00000
F00000
F00000
F00000
F00000
F00000
F00000
F00000
F00000
F00000
F7F000
FFFC00
FFFE00
FFFF00
F00F00
F00F80
F00780
F00780
F00780
F00780
F00780
F00780
F00780
F00780
F00780
F00780
F00780
F00780
F00F80
F00F00
FFFF00
FFFE00
FFFC00
FFF000
F00000
F00000
F00000
F00000
F00000
F00000
F00000
F00000
ENDCHAR
STARTCHAR ydieresis
ENCODING 255
SWIDTH 540 0
DWIDTH 26 0
BBX 20 41 3 -8
BITMAP
1E0780
1E0780
1E0780
1E0780
000000
000000
000000
000000
000000
F800F0
7801E0
7801E0
7801E0
3C03E0
3C03C0
3C03C0
3E03C0
1E0780
1E0780
1F0780
0F0780
0F0F00
0F0F00
078F00
078F00
079E00
03DE00
03DE00
03DC00
01FC00
01FC00
01FC00
00F800
007800
00F800
00F000
00F000
0FF000
0FE000
0FE000
0F8000
ENDCHAR
STARTCHAR dotlessi
ENCODING 305
SWIDTH 540 0
DWIDTH 26 0
BBX 18 24 4 0
BITMAP
FFE000
FFE000
FFE000
FFE000
01E000
01E000
01E000
01E000
01E000
01E000
01E000
01E000
01E000
01E000
01E000
01E000
01E000
01E000
01E000
01E000
01FFC0
01FFC0
01FFC0
01FFC0
ENDCHAR
STARTCHAR Lslash
ENCODING 321
SWIDTH 540 0
DWIDTH 26 0
BBX 19 34 4 0
BITMAP
0F0000
0F0000
0F0000
0F0000
0F0000
0F0000
0F0000
0F0000
0F0000
0F0400
0F1C00
0F7C00
0FFC00
0FF000
3FC000
FF0000
FF0000
FF0000
CF0000
8F0000
0F0000
0F0000
0F0000
0F0000
0F0000
0F0000
0F0000
0F0000
0F0000
0F0000
0FFFE0
0FFFE0
0FFFE0
0FFFE0
ENDCHAR
STARTCHAR lslash
ENCODING 322
SWIDTH 540 0
DWIDTH 26 0
BBX 20 34 3 0
BITMAP
FFF000
FFF000
FFF000
FFF000
01F000
01F000
01F000
01F000
01F000
01F000
01F000
01F000
01F100
01FF00
01FF00
07FF00
1FFC00
1FF000
1FF000
11F000
01F000
01F000
01F000
01F000
01F000
01F000
01F000
01F000
01F000
01F000
01FFF0
00FFF0
00FFF0
007FF0
ENDCHAR
STARTCHAR OE
ENCODING 338
SWIDTH 540 0
DWIDTH 26 0
BBX 24 34 1 0
BITMAP
07FFFF
1FFFFF
3FFFFF
7FFFFF
7C1F00
780F00
F80780
F00780
F00780
F00780
F00780
F00780
F00780
F00780
F00780
F007FE
F007FE
F007FE
F007FE
F00780
F00780
F00780
F00780
F00780
F00780
F00780
F00780
F00780
780F00
7C1F00
7FFFFF
3FFFFF
1FFFFF
07FFFF
ENDCHAR
STARTCHAR oe
ENCODING 339
SWIDTH 540 0
DWIDTH 26 0
BBX 24 24 1 0
BITMAP
0FC3F8
3FF7FC
7FFFFE
7FFFFE
783E1F
F03E0F
F01E0F
F01E0F
F01E0F
F01E0F
F01FFF
F01FFF
F01FFF
F01FFF
F01E00
F01E00
F01E00
F03E00
F03E00
783E00
7FFFFC
7FFFFC
3FF7FC
0FE3FC
ENDCHAR
STARTCHAR Scaron
ENCODING 352
SWIDTH 540 0
DWIDTH 26 0
BBX 16 41 5 0
BITMAP
7C1F
3E1E
1E3C
0F78
07F0
03E0
0000
07FE
1FFE
3FFE
7FFE
F800
F800
F000
F000
F000
F000
F000
F000
F000
F800
7C00
7FF0
3FFC
1FFE
03FE
001F
000F
000F
000F
000F
000F
000F
000F
000F
001F
001F
7FFE
7FFC
7FF8
7FE0
ENDCHAR
STARTCHAR scaron
ENCODING 353
SWIDTH 540 0
DWIDTH 26 0
BBX 16 35 5 0
BITMAP
781F
3C3E
3E3C
1F78
0FF0
07F0
03E0
0000
0000
0000
0000
0FFC
3FFC
7FFC
7FFC
F800
F000
F000
F000
F800
7800
7FE0
7FF8
3FFC
03FE
001E
001E
001E
001E
001E
003E
7FFE
7FFC
7FF8
7FE0
ENDCHAR
STARTCHAR Ydieresis
ENCODING 376
SWIDTH 540 0
DWIDTH 26 0
BBX 22 39 2 0
BITMAP
0F03C0
0F03C0
0F03C0
0F03C0
000000
F8007C
780078
7C00F8
3C00F0
3E01F0
1E01E0
1F01E0
0F03C0
0F03C0
078780
078780
07CF00
03CF00
03FE00
01FE00
01FC00
00FC00
00F800
007800
007800
007800
007800
007800
007800
007800
007800
007800
007800
007800
007800
007800
007800
007800
007800
ENDCHAR
STARTCHAR Zcaron
ENCODING 381
SWIDTH 540 0
DWIDTH 26 0
BBX 18 41 4 0
BITMAP
3E0780
1F0F00
0F9E00
07FC00
03F800
01F000
000000
7FFFC0
7FFFC0
7FFFC0
7FFFC0
0007C0
000F80
000F80
001F00
001F00
003E00
003E00
007C00
007C00
00F800
00F800
01F000
01F000
03E000
03E000
07C000
07C000
0F8000
0F8000
1F0000
1F0000
3E0000
3E0000
7C0000
7C0000
F80000
FFFF80
FFFF80
FFFF80
FFFF80
ENDCHAR
STARTCHAR zcaron
ENCODING 382
SWIDTH 540 0
DWIDTH 26 0
BBX 16 35 8 0
BITMAP
7C1F
3E1E
1E3C
0F7C
0FF8
07F0
03E0
0000
0000
0000
0000
7FFF
7FFF
7FFF
7FFF
001F
003E
007C
007C
00F8
01F0
01F0
03E0
07C0
0780
0F80
1F00
3E00
3E00
7C00
F800
FFFE
FFFE
FFFE
FFFE
ENDCHAR
STARTCHAR florin
ENCODING 402
SWIDTH 540 0
DWIDTH 26 0
BBX 19 42 4 -8
BITMAP
003FE0
00FFE0
01FFE0
01FFE0
01E000
01E000
01E000
01E000
01E000
01E000
1FFFE0
1FFFE0
1FFFE0
1FFFE0
01E000
01E000
01E000
01E000
01E000
01E000
01E000
01E000
01E000
01E000
01E000
01E000
01E000
01E000
01E000
01E000
01E000
01E000
01E000
01E000
01E000
01E000
01E000
01E000
FFE000
FFC000
FFC000
FF0000
ENDCHAR
STARTCHAR circumflex
ENCODING 710
SWIDTH 540 0
DWIDTH 26 0
BBX 15 7 5 28
BITMAP
03C0
07E0
0FF0
1FF8
3E78
3C3C
F83E
ENDCHAR
STARTCHAR caron
ENCODING 711
SWIDTH 540 0
DWIDTH 26 0
BBX 15 7 5 28
BITMAP
F81E
7C3E
3E7C
1EF8
0FF0
07E0
07E0
ENDCHAR
STARTCHAR uni02C9
ENCODING 713
SWIDTH 540 0
DWIDTH 26 0
BBX 12 4 7 29
BITMAP
FFF0
FFF0
FFF0
FFF0
ENDCHAR
STARTCHAR breve
ENCODING 728
SWIDTH 540 0
DWIDTH 26 0
BBX 14 6 6 28
BITMAP
F03C
F03C
7FF8
7FF8
3FF0
1FC0
ENDCHAR
STARTCHAR dotaccent
ENCODING 729
SWIDTH 540 0
DWIDTH 26 0
BBX 4 4 11 30
BITMAP
F0
F0
F0
F0
ENDCHAR
STARTCHAR ring
ENCODING 730
SWIDTH 540 0
DWIDTH 26 0
BBX 8 9 9 26
BITMAP
7E
FF
E7
C3
C3
C3
E7
FF
7C
ENDCHAR
STARTCHAR ogonek
ENCODING 731
SWIDTH 540 0
DWIDTH 26 0
BBX 8 12 9 -8
BITMAP
E0
E0
E0
E0
E0
E0
E0
E0
FF
FF
FF
3F
ENDCHAR
STARTCHAR tilde
ENCODING 732
SWIDTH 540 0
DWIDTH 26 0
BBX 14 6 6 28
BITMAP
3C04
7F0C
FFFC
FFFC
C1F8
0060
ENDCHAR
STARTCHAR hungarumlaut
ENCODING 733
SWIDTH 540 0
DWIDTH 26 0
BBX 18 7 4 29
BITMAP
0FCFC0
0F8F80
1F1F00
3E3E00
7C3C00
787C00
F8F800
ENDCHAR
STARTCHAR uni03BC
ENCODING 956
SWIDTH 540 0
DWIDTH 26 0
BBX 16 32 5 -8
BITMAP
F00F
F00F
F00F
F00F
F00F
F00F
F00F
F00F
F00F
F00F
F00F
F00F
F00F
F00F
F00F
F00F
F00F
F00F
F00F
F81F
FFFF
FFFF
FFFF
FFEF
F000
F000
F000
F000
F000
F000
F000
F000
ENDCHAR
STARTCHAR pi
ENCODING 960
SWIDTH 540 0
DWIDTH 26 0
BBX 22 24 2 0
BITMAP
FFFFFC
FFFFFC
FFFFFC
FFFFFC
0F0780
0F0780
0F0780
0F0780
0F0780
0F0780
0F0780
0F0780
0F0780
0F0780
0F0780
0F0780
0F0780
0F0780
0F0780
0F0780
0F07F0
0F03F0
0F03F0
0F01F0
ENDCHAR
STARTCHAR endash
ENCODING 8211
SWIDTH 540 0
DWIDTH 26 0
BBX 18 4 4 13
BITMAP
FFFFC0
FFFFC0
FFFFC0
FFFFC0
ENDCHAR
STARTCHAR emdash
ENCODING 8212
SWIDTH 540 0
DWIDTH 26 0
BBX 22 4 2 13
BITMAP
FFFFFC
FFFFFC
FFFFFC
FFFFFC
ENDCHAR
STARTCHAR quoteleft
ENCODING 8216
SWIDTH 540 0
DWIDTH 26 0
BBX 6 12 10 22
BITMAP
3C
3C
38
78
78
78
F8
F8
F8
F8
F8
F8
ENDCHAR
STARTCHAR quoteright
ENCODING 8217
SWIDTH 540 0
DWIDTH 26 0
BBX 6 12 10 22
BITMAP
7C
7C
7C
7C
7C
7C
78
78
78
F0
F0
E0
ENDCHAR
STARTCHAR quotesinglbase
ENCODING 8218
SWIDTH 540 0
DWIDTH 26 0
BBX 6 12 10 -8
BITMAP
7C
7C
7C
7C
7C
7C
78
78
78
F0
F0
E0
ENDCHAR
STARTCHAR quotedblleft
ENCODING 8220
SWIDTH 540 0
DWIDTH 26 0
BBX 14 12 6 22
BITMAP
1C3C
3C38
3C78
3C78
7878
78F8
78F0
F8F0
F8F0
F8F0
F8F0
F8F0
ENDCHAR
STARTCHAR quotedblright
ENCODING 8221
SWIDTH 540 0
DWIDTH 26 0
BBX 14 12 6 22
BITMAP
3C7C
3C7C
3C7C
3C7C
3C7C
7C78
7C78
7878
78F0
70F0
70F0
F0E0
ENDCHAR
STARTCHAR quotedblbase
ENCODING 8222
SWIDTH 540 0
DWIDTH 26 0
BBX 14 12 6 -8
BITMAP
3C7C
3C7C
3C7C
3C7C
3C7C
7C78
7C78
7878
78F0
70F0
70F0
F0E0
ENDCHAR
STARTCHAR dagger
ENCODING 8224
SWIDTH 540 0
DWIDTH 26 0
BBX 18 34 4 0
BITMAP
01E000
01E000
01E000
01E000
01E000
01E000
01E000
01E000
01E000
01E000
FFFFC0
FFFFC0
FFFFC0
FFFFC0
01E000
01E000
01E000
01E000
01E000
01E000
01E000
01E000
01E000
01E000
01E000
01E000
01E000
01E000
01E000
01E000
01E000
01E000
01E000
01E000
ENDCHAR
STARTCHAR daggerdbl
ENCODING 8225
SWIDTH 540 0
DWIDTH 26 0
BBX 18 34 4 0
BITMAP
01E000
01E000
01E000
01E000
01E000
01E000
01E000
01E000
01E000
01E000
FFFFC0
FFFFC0
FFFFC0
FFFFC0
01E000
01E000
01E000
01E000
01E000
01E000
FFFFC0
FFFFC0
FFFFC0
FFFFC0
01E000
01E000
01E000
01E000
01E000
01E000
01E000
01E000
01E000
01E000
ENDCHAR
STARTCHAR bullet
ENCODING 8226
SWIDTH 540 0
DWIDTH 26 0
BBX 8 7 9 11
BITMAP
FF
FF
FF
FF
FF
FF
FF
ENDCHAR
STARTCHAR ellipsis
ENCODING 8230
SWIDTH 540 0
DWIDTH 26 0
BBX 22 5 2 0
BITMAP
F8787C
F8787C
F8787C
F8787C
F8787C
ENDCHAR
STARTCHAR perthousand
ENCODING 8240
SWIDTH 540 0
DWIDTH 26 0
BBX 25 34 0 0
BITMAP
0F800000
3FE00000
7FF00000
78F00000
70700000
F0700000
F0780000
F0780000
F0780000
F0700000
70700000
78F00000
7FF00000
3FE00080
0F807F80
003FFF80
1FFFFF00
7FFF8000
7FC00000
40000000
0F807C00
3FE1FF00
7FF3FF80
78F3C780
70778380
F07F8380
F07F8380
F07F8380
F07F8380
70738380
78F3C780
7FF3FF80
3FE1FF00
0F807C00
ENDCHAR
STARTCHAR guilsinglleft
ENCODING 8249
SWIDTH 540 0
DWIDTH 26 0
BBX 8 20 9 4
BITMAP
0F
0E
1E
1E
1C
3C
3C
78
78
F8
F8
78
78
3C
3C
1C
1E
1E
0E
0F
ENDCHAR
STARTCHAR guilsinglright
ENCODING 8250
SWIDTH 540 0
DWIDTH 26 0
BBX 8 20 9 4
BITMAP
F0
70
70
78
38
3C
3C
3E
1E
1E
1F
1E
3E
3C
3C
38
78
70
70
F0
ENDCHAR
STARTCHAR fraction
ENCODING 8260
SWIDTH 540 0
DWIDTH 26 0
BBX 16 44 5 -5
BITMAP
000F
000E
000E
001E
001E
001C
003C
003C
003C
0038
0078
0078
0070
0070
00F0
00F0
00E0
01E0
01E0
01C0
01C0
03C0
03C0
0380
0780
0780
0700
0700
0F00
0F00
0E00
0E00
1E00
1E00
1C00
3C00
3C00
3800
3800
7800
7800
7000
F000
F000
ENDCHAR
STARTCHAR Euro
ENCODING 8364
SWIDTH 540 0
DWIDTH 26 0
BBX 18 34 4 0
BITMAP
007FC0
01FFC0
07FFC0
07FFC0
0F8000
0F0000
0F0000
0F0000
0F0000
0F0000
0F0000
FFFF00
FFFF00
FFFF00
FFFF00
0F0000
0F0000
0F0000
0F0000
FFFF00
FFFF00
FFFF00
FFFF00
0F0000
0F0000
0F0000
0F0000
0F0000
0F0000
0F8000
07FFC0
07FFC0
01FFC0
007FC0
ENDCHAR
STARTCHAR trademark
ENCODING 8482
SWIDTH 540 0
DWIDTH 26 0
BBX 24 25 1 9
BITMAP
FFFE1F
FFFE1F
FFFF1F
0E3F1F
0E3F3F
0E3B3F
0E3B3F
0E3BB7
0E3BB7
0E3BF7
0E39F7
0E39F7
0E39E7
0E39E7
0E39E7
0E38E7
0E38C7
0E3807
0E3807
0E3807
0E3807
0E3807
0E3807
0E3807
0E3807
ENDCHAR
STARTCHAR Omega
ENCODING 8486
SWIDTH 540 0
DWIDTH 26 0
BBX 22 34 2 0
BITMAP
00F800
07FF80
0FFFC0
1FFFE0
3F03F0
3C01F0
7C00F0
7C00F0
7C00F0
7C00F0
7C00F0
7C00F0
7C00F0
7C00F0
7C00F0
7C00F0
7C00F0
7C00F0
7C00F0
7C00F0
7C00F0
7C00F0
7C00F0
7C00F0
7C00F0
7C00F0
7C00F0
7C00F0
3C00F0
3E01F0
FF87FC
FF87FC
FF87FC
FF87FC
ENDCHAR
STARTCHAR partialdiff
ENCODING 8706
SWIDTH 540 0
DWIDTH 26 0
BBX 16 34 5 0
BITMAP
3FC0
3FF8
3FFC
3FFE
003F
000F
000F
000F
000F
000F
000F
000F
000F
0FFF
3FFF
7FFF
FE0F
F00F
F00F
F00F
F00F
F00F
F00F
F00F
F00F
F00F
F00F
F00F
F00F
F81F
7FFE
7FFE
3FFC
0FF0
ENDCHAR
STARTCHAR Delta
ENCODING 8710
SWIDTH 540 0
DWIDTH 26 0
BBX 22 34 2 0
BITMAP
00FC00
00FC00
00FC00
00FE00
01FE00
01FE00
01EE00
01CE00
01CF00
03CF00
03CF00
03C700
038780
078780
078780
078780
078380
0F03C0
0F03C0
0F03C0
0F03C0
1E01E0
1E01E0
1E01E0
1E01E0
3E01F0
3C00F0
3C00F0
3C00F0
7C00F0
7FFFF8
7FFFF8
7FFFF8
FFFFFC
ENDCHAR
STARTCHAR product
ENCODING 8719
SWIDTH 540 0
DWIDTH 26 0
BBX 22 34 2 0
BITMAP
FFFFFC
FFFFFC
FFFFFC
FFFFFC
0F0780
0F0780
0F0780
0F0780
0F0780
0F0780
0F0780
0F0780
0F0780
0F0780
0F0780
0F0780
0F0780
0F0780
0F0780
0F0780
0F0780
0F0780
0F0780
0F0780
0F0780
0F0780
0F0780
0F0780
0F0780
0F07C0
0F07F0
0F03F0
0F03F0
0F01F0
ENDCHAR
STARTCHAR summation
ENCODING 8721
SWIDTH 540 0
DWIDTH 26 0
BBX 18 42 4 -8
BITMAP
FFFFC0
FFFFC0
FFFFC0
FFFFC0
F80000
780000
7C0000
7C0000
3E0000
3E0000
1E0000
1F0000
0F0000
0F8000
078000
07C000
03C000
03E000
01E000
01F000
01F000
00F000
01F000
01E000
03E000
03C000
07C000
078000
0F8000
0F0000
1F0000
1E0000
3E0000
3C0000
7C0000
780000
F80000
F00000
F00000
FFFFC0
FFFFC0
FFFFC0
ENDCHAR
STARTCHAR minus
ENCODING 8722
SWIDTH 540 0
DWIDTH 26 0
BBX 18 4 4 13
BITMAP
FFFFC0
FFFFC0
FFFFC0
FFFFC0
ENDCHAR
STARTCHAR uni2215
ENCODING 8725
SWIDTH 540 0
DWIDTH 26 0
BBX 20 44 3 -5
BITMAP
0000F0
0001E0
0001E0
0001C0
0003C0
0003C0
000780
000780
000780
000F00
000F00
000F00
001E00
001E00
001E00
003C00
003C00
003800
007800
007800
007000
00F000
00F000
01E000
01E000
01E000
03C000
03C000
03C000
078000
078000
078000
0F0000
0F0000
0E0000
1E0000
1E0000
1C0000
3C0000
3C0000
380000
780000
780000
F00000
ENDCHAR
STARTCHAR uni2219
ENCODING 8729
SWIDTH 540 0
DWIDTH 26 0
BBX 4 5 11 12
BITMAP
F0
F0
F0
F0
F0
ENDCHAR
STARTCHAR radical
ENCODING 8730
SWIDTH 540 0
DWIDTH 26 0
BBX 24 39 1 0
BITMAP
0001FF
0001FF
0001FF
0003E0
0003C0
0003C0
0003C0
0003C0
0007C0
000780
000780
000780
000780
000F00
000F00
000F00
000F00
000F00
001E00
001E00
F01E00
F81E00
783C00
783C00
783C00
7C3C00
3C3C00
3C7800
3C7800
3C7800
1E7800
1E7000
1EF000
1EF000
0FF000
0FF000
0FE000
0FE000
07E000
ENDCHAR
STARTCHAR infinity
ENCODING 8734
SWIDTH 540 0
DWIDTH 26 0
BBX 24 16 1 7
BITMAP
0F81F0
3FE7FC
7FFFFE
FFFFFF
F07E0F
F03C0F
E03C0F
E03C0F
E03C0F
E03C0F
E03C0F
F03C0F
F87E1F
7FFFFE
7FE7FE
3FC3F8
ENDCHAR
STARTCHAR uni2224
ENCODING 8740
SWIDTH 540 0
DWIDTH 26 0
BBX 4 5 11 12
BITMAP
F0
F0
F0
F0
F0
ENDCHAR
STARTCHAR logicaland
ENCODING 8743
SWIDTH 540 0
DWIDTH 26 0
BBX 4 5 11 12
BITMAP
F0
F0
F0
F0
F0
ENDCHAR
STARTCHAR integral
ENCODING 8747
SWIDTH 540 0
DWIDTH 26 0
BBX 20 50 3 -11
BITMAP
003FF0
007FF0
00FFF0
00F800
00F000
00F000
00F000
00F000
00F000
00F000
00F000
00F000
00F000
00F000
00F000
00F000
00F000
00F000
00F000
00F000
00F000
00F000
00F000
00F000
00F000
00F000
00F000
00F000
00F000
00F000
00F000
00F000
00F000
00F000
00F000
00F000
00F000
00F000
00F000
00F000
00F000
00F000
00F000
00F000
00F000
00F000
01F000
FFE000
FFE000
FFC000
ENDCHAR
STARTCHAR approxequal
ENCODING 8776
SWIDTH 540 0
DWIDTH 26 0
BBX 16 14 5 8
BITMAP
1E01
FFC7
FFFF
FFFF
C1FE
8038
0000
0000
1E01
FFC3
FFFF
FFFF
E1FE
8038
ENDCHAR
STARTCHAR notequal
ENCODING 8800
SWIDTH 540 0
DWIDTH 26 0
BBX 18 24 4 3
BITMAP
0003C0
000380
000780
000F00
000F00
FFFFC0
FFFFC0
FFFFC0
FFFFC0
007000
00F000
01E000
01E000
03C000
078000
FFFFC0
FFFFC0
FFFFC0
FFFFC0
3C0000
3C0000
780000
700000
F00000
ENDCHAR
STARTCHAR lessequal
ENCODING 8804
SWIDTH 540 0
DWIDTH 26 0
BBX 18 27 4 0
BITMAP
000040
0001C0
0007C0
003FC0
00FFC0
03FE00
0FF800
3FE000
FF8000
FC0000
F00000
F80000
FF0000
FFC000
3FF800
07FF00
01FFC0
003FC0
000FC0
0003C0
000040
000000
000000
FFFFC0
FFFFC0
FFFFC0
FFFFC0
ENDCHAR
STARTCHAR greaterequal
ENCODING 8805
SWIDTH 540 0
DWIDTH 26 0
BBX 18 27 4 0
BITMAP
800000
E00000
F80000
FE0000
FFC000
3FF000
07FC00
01FF00
007FC0
001FC0
0003C0
0007C0
003FC0
00FFC0
07FF00
3FF800
FFE000
FF0000
FC0000
F00000
800000
000000
000000
FFFFC0
FFFFC0
FFFFC0
FFFFC0
ENDCHAR
STARTCHAR dotmath
ENCODING 8901
SWIDTH 540 0
DWIDTH 26 0
BBX 4 5 11 12
BITMAP
F0
F0
F0
F0
F0
ENDCHAR
STARTCHAR uni25AF
ENCODING 9647
SWIDTH 540 0
DWIDTH 26 0
BBX 18 34 4 0
BITMAP
FFFFC0
FFFFC0
FFFFC0
FFFFC0
F003C0
F003C0
F003C0
F003C0
F003C0
F003C0
F003C0
F003C0
F003C0
F003C0
F003C0
F003C0
F003C0
F003C0
F003C0
F003C0
F003C0
F003C0
F003C0
F003C0
F003C0
F003C0
F003C0
F003C0
F003C0
F003C0
F003C0
FFFFC0
FFFFC0
FFFFC0
ENDCHAR
STARTCHAR lozenge
ENCODING 9674
SWIDTH 540 0
DWIDTH 26 0
BBX 18 34 4 0
BITMAP
03F000
03F000
07F000
07F800
07F800
0F3C00
0F3C00
1F3C00
1E1E00
1E1E00
3C0F00
3C0F00
7C0F00
780780
780780
F007C0
F003C0
F003C0
F003C0
F80780
780780
780F80
3C0F00
3C0F00
3E1E00
1E1E00
1E1E00
0F3C00
0F3C00
0FF800
07F800
07F800
03F000
03F000
ENDCHAR
STARTCHAR uni2620
ENCODING 9760
SWIDTH 540 0
DWIDTH 26 0
BBX 28 25 -1 1
BITMAP
001F8000
007FE000
00FFF000
01FFF800
01FFF800
03FFF800
03FFFC00
03FFFC00
23FFFC40
738F1CE0
318F18C0
798F19E0
FCDFF3F0
FCF9F3F0
04F0F000
00F0E000
007FE000
003FC000
033FCC00
7F801FE0
FF000FF0
3C0003C0
18000180
18000180
18000180
ENDCHAR
STARTCHAR smileface
ENCODING 9786
SWIDTH 540 0
DWIDTH 26 0
BBX 26 26 0 0
BITMAP
003F0000
01FFE000
07FFF000
0F807C00
1E001E00
3C000E00
38000700
70C0C380
71E1E380
E1E3E380
E1E1E1C0
E0C081C0
E00001C0
E00001C0
E30031C0
E38071C0
E1806180
71C0E380
70E1C380
387F8700
3C3E0F00
1E001E00
0F807C00
07FFF800
01FFE000
007F8000
ENDCHAR
STARTCHAR invsmileface
ENCODING 9787
SWIDTH 540 0
DWIDTH 26 0
BBX 26 26 0 0
BITMAP
003F0000
01FFE000
07FFF000
0FFFFC00
1FFFFE00
3FFFFE00
3FFFFF00
7E3E3F80
7E1E1F80
FE1E1F80
FE1E1FC0
FFFFFFC0
FFFFFFC0
FFFFFFC0
FFFFFFC0
FCFFCFC0
FC7F8F80
7E7F9F80
7E1E3F80
3F007F00
3FC0FF00
1FFFFE00
0FFFFC00
07FFF800
01FFE000
007F8000
ENDCHAR
STARTCHAR sun
ENCODING 9788
SWIDTH 540 0
DWIDTH 26 0
BBX 26 25 0 0
BITMAP
000C0000
000C0000
080C0400
1C0C0E00
1E0C1C00
0F3F3800
07FFF000
03E1E000
03807000
03007000
07003000
FF003FC0
FF003FC0
07003800
03003000
03807000
01C0E000
03F3F000
077FB800
0E1E1C00
1C0C0E00
080C0400
000C0000
000C0000
000C0000
ENDCHAR
STARTCHAR female
ENCODING 9792
SWIDTH 540 0
DWIDTH 26 0
BBX 16 26 5 0
BITMAP
07C0
1FF0
3E7C
781C
700E
6006
E007
E007
E007
E006
600E
700E
3C3C
1FF8
07E0
0180
0180
0180
0180
3FFC
3FFC
0180
0180
0180
0180
0180
ENDCHAR
STARTCHAR male
ENCODING 9794
SWIDTH 540 0
DWIDTH 26 0
BBX 23 23 1 0
BITMAP
0007FE
000FFE
00001E
00003E
000076
0000E6
0001C6
000386
07E706
1FFE06
3C3C04
380E00
700600
600700
E00700
E00700
E00700
600700
700600
300E00
3C3C00
1FF800
07E000
ENDCHAR
STARTCHAR spade
ENCODING 9824
SWIDTH 540 0
DWIDTH 26 0
BBX 22 26 2 0
BITMAP
002000
007000
00FC00
01FE00
03FF00
07FF80
0FFFC0
1FFFE0
3FFFE0
3FFFF0
7FFFF8
7FFFF8
FFFFFC
FFFFFC
FFFFFC
FFFFFC
FFFFFC
7FB7F8
7F33F0
083040
003000
007000
007800
7FFFF0
7FFFF8
FFFFFC
ENDCHAR
STARTCHAR club
ENCODING 9827
SWIDTH 540 0
DWIDTH 26 0
BBX 22 26 2 0
BITMAP
00FC00
03FE00
03FF00
07FF80
07FF80
07FF80
07FF00
03FF00
01FE00
3FFFF0
7FFFF8
FFFFF8
FFFFFC
FFFFFC
FFFFFC
FFFFFC
FFFFFC
7FB7F8
3F33F0
083080
003000
007000
007800
7FFFF0
7FFFF8
FFFFFC
ENDCHAR
STARTCHAR heart
ENCODING 9829
SWIDTH 540 0
DWIDTH 26 0
BBX 24 26 1 0
BITMAP
0F00F8
3FC3FC
7FC7FE
FFE7FE
FFFFFF
FFFFFF
FFFFFF
FFFFFF
FFFFFF
7FFFFE
7FFFFE
7FFFFE
3FFFFC
3FFFF8
1FFFF8
0FFFF0
0FFFF0
07FFE0
03FFC0
01FF80
01FF80
00FF00
007E00
003C00
001800
001000
ENDCHAR
STARTCHAR diamond
ENCODING 9830
SWIDTH 540 0
DWIDTH 26 0
BBX 18 27 4 -1
BITMAP
008000
00C000
01E000
01E000
03F000
07F800
0FFC00
0FFC00
1FFE00
3FFF00
7FFF00
7FFF80
FFFFC0
FFFFC0
FFFF80
7FFF80
3FFF00
1FFE00
1FFE00
0FFC00
07F800
07F800
03F000
01E000
01C000
00C000
008000
ENDCHAR
STARTCHAR musicalnote
ENCODING 9834
SWIDTH 540 0
DWIDTH 26 0
BBX 18 26 4 -1
BITMAP
007800
007C00
007E00
006F00
006380
006380
006180
0061C0
006180
006180
006080
006000
006000
006000
006000
006000
006000
006000
1FE000
3FE000
7FE000
FFE000
FFE000
7FC000
7F8000
040000
ENDCHAR
STARTCHAR musicalnotedbl
ENCODING 9835
SWIDTH 540 0
DWIDTH 26 0
BBX 24 29 1 -1
BITMAP
000001
00000F
0000FF
000FFF
00FFFB
00FF83
00F803
00E003
00E003
00E003
00E003
00E003
00E003
00E003
00E003
00E003
00E003
00E003
00E013
00E1FF
00E3FF
1FE7FF
7FE7FF
FFE7FF
FFE3FE
FFC1F8
FFC000
7F8000
080000
ENDCHAR
STARTCHAR fi
ENCODING 64257
SWIDTH 1080 0
DWIDTH 52 0
BBX 43 34 5 0
BITMAP
01FF0000F000
07FF0000F000
0FFF0000F000
0FFF0000F000
0F0000000000
0F0000000000
0F0000000000
0F0000000000
0F0000000000
0F0000000000
FFFF007FF000
FFFF007FF000
FFFF007FF000
FFFF007FF000
0F000000F000
0F000000F000
0F000000F000
0F000000F000
0F000000F000
0F000000F000
0F000000F000
0F000000F000
0F000000F000
0F000000F000
0F000000F000
0F000000F000
0F000000F000
0F000000F000
0F000000F000
0F000000F000
FFFC0000FFE0
FFFC0000FFE0
FFFC0000FFE0
FFFC0000FFE0
ENDCHAR
STARTCHAR fl
ENCODING 64258
SWIDTH 1080 0
DWIDTH 52 0
BBX 43 34 5 0
BITMAP
01FF00FFE000
07FF00FFE000
0FFF00FFE000
0FFF00FFE000
0F000001E000
0F000001E000
0F000001E000
0F000001E000
0F000001E000
0F000001E000
FFFF0001E000
FFFF0001E000
FFFF0001E000
FFFF0001E000
0F000001E000
0F000001E000
0F000001E000
0F000001E000
0F000001E000
0F000001E000
0F000001E000
0F000001E000
0F000001E000
0F000001E000
0F000001E000
0F000001E000
0F000001E000
0F000001E000
0F000001E000
0F000001E000
FFFC0001FFE0
FFFC0000FFE0
FFFC0000FFE0
FFFC00007FE0
ENDCHAR
STARTCHAR .notdef
ENCODING -1
SWIDTH 540 0
DWIDTH 26 0
BBX 18 34 4 0
BITMAP
FFFFC0
FFFFC0
FFFFC0
FFFFC0
F003C0
F003C0
F003C0
F003C0
F003C0
F003C0
F003C0
F003C0
F003C0
F003C0
F003C0
F003C0
F003C0
F003C0
F003C0
F003C0
F003C0
F003C0
F003C0
F003C0
F003C0
F003C0
F003C0
F003C0
F003C0
F003C0
F003C0
FFFFC0
FFFFC0
FFFFC0
ENDCHAR
ENDFONT
